<svg width="80" height="80" viewBox="0 0 80 80" fill="none" xmlns="http://www.w3.org/2000/svg">
<g clip-path="url(#clip0_219_2260)">
<path d="M75 60C75 61.3261 74.4732 62.5979 73.5355 63.5355C72.5979 64.4732 71.3261 65 70 65H10C8.67392 65 7.40215 64.4732 6.46447 63.5355C5.52678 62.5979 5 61.3261 5 60V30C5 28.6739 5.52678 27.4021 6.46447 26.4645C7.40215 25.5268 8.67392 25 10 25H15.86C19.8362 24.9978 23.6488 23.417 26.46 20.605L30.61 16.465C31.545 15.5297 32.8125 15.0029 34.135 15H45.855C47.181 15.0003 48.4525 15.5273 49.39 16.465L53.53 20.605C54.9232 21.9986 56.5772 23.104 58.3977 23.8581C60.2182 24.6122 62.1695 25.0002 64.14 25H70C71.3261 25 72.5979 25.5268 73.5355 26.4645C74.4732 27.4021 75 28.6739 75 30V60ZM10 20C7.34784 20 4.8043 21.0536 2.92893 22.9289C1.05357 24.8043 0 27.3478 0 30L0 60C0 62.6522 1.05357 65.1957 2.92893 67.0711C4.8043 68.9464 7.34784 70 10 70H70C72.6522 70 75.1957 68.9464 77.0711 67.0711C78.9464 65.1957 80 62.6522 80 60V30C80 27.3478 78.9464 24.8043 77.0711 22.9289C75.1957 21.0536 72.6522 20 70 20H64.14C61.4881 19.9994 58.9449 18.9455 57.07 17.07L52.93 12.93C51.0551 11.0545 48.5119 10.0006 45.86 10H34.14C31.4881 10.0006 28.9449 11.0545 27.07 12.93L22.93 17.07C21.0551 18.9455 18.5119 19.9994 15.86 20H10Z" fill="#26B0FF"/>
<path d="M40 55C36.6848 55 33.5054 53.683 31.1612 51.3388C28.817 48.9946 27.5 45.8152 27.5 42.5C27.5 39.1848 28.817 36.0054 31.1612 33.6612C33.5054 31.317 36.6848 30 40 30C43.3152 30 46.4946 31.317 48.8388 33.6612C51.183 36.0054 52.5 39.1848 52.5 42.5C52.5 45.8152 51.183 48.9946 48.8388 51.3388C46.4946 53.683 43.3152 55 40 55ZM40 60C44.6413 60 49.0925 58.1563 52.3744 54.8744C55.6563 51.5925 57.5 47.1413 57.5 42.5C57.5 37.8587 55.6563 33.4075 52.3744 30.1256C49.0925 26.8437 44.6413 25 40 25C35.3587 25 30.9075 26.8437 27.6256 30.1256C24.3437 33.4075 22.5 37.8587 22.5 42.5C22.5 47.1413 24.3437 51.5925 27.6256 54.8744C30.9075 58.1563 35.3587 60 40 60ZM15 32.5C15 33.163 14.7366 33.7989 14.2678 34.2678C13.7989 34.7366 13.163 35 12.5 35C11.837 35 11.2011 34.7366 10.7322 34.2678C10.2634 33.7989 10 33.163 10 32.5C10 31.837 10.2634 31.2011 10.7322 30.7322C11.2011 30.2634 11.837 30 12.5 30C13.163 30 13.7989 30.2634 14.2678 30.7322C14.7366 31.2011 15 31.837 15 32.5Z" fill="#26B0FF"/>
</g>
<defs>
<clipPath id="clip0_219_2260">
<rect width="80" height="80" fill="white"/>
</clipPath>
</defs>
</svg>
