<svg width="26" height="19" viewBox="0 0 26 19" fill="none" xmlns="http://www.w3.org/2000/svg">
<path d="M0 5.89307H26.0001V13.1153H0V5.89307Z" fill="#FCDD0A"/>
<path d="M23.1112 0.115234H2.8889C2.12272 0.115234 1.38791 0.4196 0.84614 0.961374C0.304366 1.50315 0 2.23795 0 3.00414L0 5.89304H26.0001V3.00414C26.0001 2.23795 25.6957 1.50315 25.154 0.961374C24.6122 0.4196 23.8774 0.115234 23.1112 0.115234Z" fill="#088930"/>
<path d="M2.8889 18.893H23.1112C23.8774 18.893 24.6122 18.5887 25.154 18.0469C25.6957 17.5051 26.0001 16.7703 26.0001 16.0041V13.1152H0V16.0041C0 16.7703 0.304366 17.5051 0.84614 18.0469C1.38791 18.5887 2.12272 18.893 2.8889 18.893Z" fill="#DA1219"/>
<path d="M13.0002 16.0042C16.59 16.0042 19.5002 13.094 19.5002 9.50418C19.5002 5.91431 16.59 3.00415 13.0002 3.00415C9.41028 3.00415 6.50012 5.91431 6.50012 9.50418C6.50012 13.094 9.41028 16.0042 13.0002 16.0042Z" fill="#0F47AF"/>
<path d="M9.56952 14.1763L10.811 10.1817L8.83862 8.74805H9.67352L12.4021 10.8374L11.9731 11.0967L11.3072 10.4973L10.247 13.6794L9.56952 14.1763Z" fill="#FCDD0A"/>
<path d="M16.3287 14.1764L12.9125 11.7606L10.9459 13.1834L11.2038 12.3889L14.0667 10.3494L14.1808 10.8376L13.3661 11.3858L16.0665 13.3784L16.3287 14.1764Z" fill="#FCDD0A"/>
<path d="M18.3315 7.79996L15.0678 10.2353L15.7987 12.5623L15.1234 12.0734L14.0668 8.72729L14.5673 8.76918L14.8526 9.68785L17.5248 7.77612L18.3315 7.79996Z" fill="#FCDD0A"/>
<path d="M12.9076 3.77686L14.251 7.73971L16.6661 7.77582L15.9923 8.26693L12.7069 8.23949L12.9026 7.77582L13.6096 7.73248L12.6513 4.57636L12.9076 3.77686ZM7.3689 7.73248H11.6344L12.4021 5.38236L12.6606 6.17537L11.5643 9.5041L11.1844 9.17477L11.5282 8.18388L8.07379 8.20482L7.3689 7.73248ZM12.8044 12.6183H13.1055V15.2523H12.8044V12.6183ZM18.4717 11.1111L18.3792 11.3971L15.889 10.5629L15.9814 10.2769L18.4717 11.1111Z" fill="#FCDD0A"/>
<path d="M16.2306 4.77588L16.474 4.95282L14.9017 7.13467L14.6583 6.95844L16.2306 4.77588ZM9.47131 4.95282L9.7147 4.77588L11.2848 6.95772L11.0421 7.13467L9.47131 4.95282ZM7.5668 11.3972L7.47363 11.1112L9.9682 10.2771L10.0614 10.5638L7.5668 11.3972Z" fill="#FCDD0A"/>
</svg>
