<svg width="80" height="80" viewBox="0 0 80 80" fill="none" xmlns="http://www.w3.org/2000/svg">
<path d="M60 26.6667C60 28.4348 59.2976 30.1305 58.0474 31.3807C56.7971 32.631 55.1014 33.3333 53.3333 33.3333C51.5652 33.3333 49.8695 32.631 48.6193 31.3807C47.3691 30.1305 46.6667 28.4348 46.6667 26.6667C46.6667 24.8986 47.3691 23.2029 48.6193 21.9526C49.8695 20.7024 51.5652 20 53.3333 20C55.1014 20 56.7971 20.7024 58.0474 21.9526C59.2976 23.2029 60 24.8986 60 26.6667Z" fill="#26B0FF"/>
<path fill-rule="evenodd" clip-rule="evenodd" d="M39.81 4.1665H40.19C47.8867 4.1665 53.9167 4.1665 58.6233 4.79984C63.4367 5.4465 67.2367 6.79984 70.22 9.77984C73.2033 12.7632 74.5533 16.5632 75.2 21.3798C75.8333 26.0832 75.8333 32.1132 75.8333 39.8098V40.1032C75.8333 46.4665 75.8333 51.6732 75.4867 55.9132C75.14 60.1798 74.43 63.7365 72.8367 66.6965C72.1367 67.9998 71.27 69.1698 70.22 70.2198C67.2367 73.2032 63.4367 74.5532 58.62 75.1998C53.9167 75.8332 47.8867 75.8332 40.19 75.8332H39.81C32.1133 75.8332 26.0833 75.8332 21.3767 75.1998C16.5633 74.5532 12.7633 73.1998 9.78 70.2198C7.13666 67.5765 5.77 64.2865 5.04666 60.1998C4.33 56.1898 4.2 51.1998 4.17333 45.0065C4.16666 43.4298 4.16666 41.7632 4.16666 40.0032V39.8098C4.16666 32.1132 4.16666 26.0832 4.8 21.3765C5.44666 16.5632 6.8 12.7632 9.78 9.77984C12.7633 6.7965 16.5633 5.4465 21.38 4.79984C26.0833 4.1665 32.1133 4.1665 39.81 4.1665ZM22.0433 9.75317C17.7833 10.3265 15.2133 11.4198 13.3167 13.3165C11.4167 15.2165 10.3267 17.7832 9.75333 22.0465C9.17333 26.3798 9.16666 32.0732 9.16666 39.9998V42.8132L12.5033 39.8932C13.9669 38.612 15.8627 37.935 17.8068 37.9994C19.7508 38.0638 21.5977 38.8647 22.9733 40.2398L37.2733 54.5398C38.383 55.6493 39.8485 56.3318 41.4118 56.4671C42.9752 56.6025 44.5361 56.1821 45.82 55.2798L46.8133 54.5798C48.6656 53.2783 50.9047 52.6437 53.1645 52.78C55.4242 52.9162 57.5708 53.8152 59.2533 55.3298L68.6867 63.8198C69.64 61.8265 70.2033 59.2065 70.5033 55.5098C70.83 51.4932 70.8333 46.4865 70.8333 39.9998C70.8333 32.0732 70.8267 26.3798 70.2467 22.0465C69.6733 17.7832 68.58 15.2132 66.6833 13.3132C64.7833 11.4165 62.2167 10.3265 57.9533 9.75317C53.62 9.17317 47.9267 9.1665 40 9.1665C32.0733 9.1665 26.3767 9.17317 22.0433 9.75317Z" fill="#26B0FF"/>
</svg>
