<svg width="21" height="20" viewBox="0 0 21 20" fill="none" xmlns="http://www.w3.org/2000/svg">
<path d="M10.2862 14H10.2952M7.3482 2.826L1.5252 7.921C1.0252 8.358 1.3612 9.134 2.0482 9.134C2.4682 9.134 2.8092 9.449 2.8092 9.837V13.081C2.8092 15.871 2.8092 17.266 3.7482 18.133C4.6862 19 6.1962 19 9.2182 19H11.3542C14.3752 19 15.8862 19 16.8242 18.133C17.7632 17.266 17.7632 15.871 17.7632 13.081V9.837C17.7632 9.449 18.1032 9.134 18.5232 9.134C19.2112 9.134 19.5462 8.358 19.0472 7.921L13.2242 2.826C11.8332 1.61 11.1372 1 10.2862 1C9.4352 1 8.7392 1.609 7.3482 2.826Z" stroke="#000" stroke-width="1.5" stroke-linecap="round" stroke-linejoin="round"/>
</svg>
