<svg width="300" height="300" viewBox="0 0 300 300" fill="none" xmlns="http://www.w3.org/2000/svg">
<path d="M240.665 37.905C240.665 37.905 208.125 13.8618 166.524 27.0822C124.924 40.302 108.008 76.1082 84.4362 101.267C72.0924 114.443 53.6334 119.936 38.8836 130.317C-8.27823 163.511 -0.0828347 232.913 37.1076 257.539C69.3036 278.858 109.105 279.422 160.576 260.258C212.047 241.094 248.913 229.314 280.217 179.741C311.522 130.168 280.804 70.7238 240.665 37.905Z" fill="#26B0FF"/>
<path opacity="0.8" d="M240.665 37.905C240.665 37.905 208.125 13.8618 166.524 27.0822C124.924 40.302 108.008 76.1082 84.4362 101.267C72.0924 114.443 53.6334 119.936 38.8836 130.317C-8.27823 163.511 -0.0828362 232.913 37.1076 257.539C69.3036 278.858 109.105 279.422 160.576 260.258C212.047 241.094 248.913 229.314 280.217 179.741C311.522 130.168 280.804 70.7238 240.665 37.905Z" fill="white"/>
<g opacity="0.3">
<path d="M45.9666 86.067H17.418V50.4528H41.7042L45.9666 54.006V86.067Z" fill="white" stroke="black" stroke-miterlimit="10" stroke-linejoin="round"/>
<path d="M41.7042 50.4528V54.0666H45.9666L41.7042 50.4528Z" fill="white" stroke="black" stroke-miterlimit="10" stroke-linejoin="round"/>
<path d="M33.1794 53.4498H11.8668V61.2336H33.1794V53.4498Z" fill="black"/>
<path d="M20.577 63.4578H43.557" stroke="black" stroke-miterlimit="10"/>
<path d="M20.577 67.7202H43.557" stroke="black" stroke-miterlimit="10"/>
<path d="M20.577 71.9826H43.557" stroke="black" stroke-miterlimit="10"/>
<path d="M20.577 76.245H43.557" stroke="black" stroke-miterlimit="10"/>
<path d="M20.577 80.5074H43.557" stroke="black" stroke-miterlimit="10"/>
<path d="M18.3726 60.1218V55.0764H17.3376V54.507H20.025V55.0764H18.99V60.1218H18.3726Z" fill="white"/>
<path d="M21.8449 57.699L20.9059 60.1218H20.3125L21.4435 57.2262L20.3845 54.507H21.0343L21.9007 56.7528L22.7749 54.507H23.3605L22.3099 57.2262L23.4331 60.1218H22.7755L21.8449 57.699Z" fill="white"/>
<path d="M24.7476 60.1218V55.0764H23.7126V54.507H26.4V55.0764H25.365V60.1218H24.7476Z" fill="white"/>
</g>
<g opacity="0.3">
<path d="M278.309 164.399H249.761V128.785H274.046L278.309 132.338V164.399Z" fill="white" stroke="black" stroke-miterlimit="10" stroke-linejoin="round"/>
<path d="M274.046 128.785V132.399H278.309L274.046 128.785Z" fill="white" stroke="black" stroke-miterlimit="10" stroke-linejoin="round"/>
<path d="M265.522 131.782H244.209V139.566H265.522V131.782Z" fill="black"/>
<path d="M252.919 141.79H275.9" stroke="black" stroke-miterlimit="10"/>
<path d="M252.919 146.053H275.9" stroke="black" stroke-miterlimit="10"/>
<path d="M252.919 150.315H275.9" stroke="black" stroke-miterlimit="10"/>
<path d="M252.919 154.577H275.9" stroke="black" stroke-miterlimit="10"/>
<path d="M252.919 158.84H275.9" stroke="black" stroke-miterlimit="10"/>
<path d="M250.715 138.454V133.409H249.68V132.839H252.367V133.409H251.332V138.454H250.715Z" fill="white"/>
<path d="M254.187 136.031L253.248 138.454H252.655L253.786 135.559L252.727 132.839H253.376L254.243 135.085L255.118 132.839H255.703L254.653 135.559L255.776 138.454H255.118L254.187 136.031Z" fill="white"/>
<path d="M257.09 138.454V133.409H256.055V132.839H258.742V133.409H257.707V138.454H257.09Z" fill="white"/>
</g>
<g opacity="0.3">
<path d="M184.987 225.233H156.439V189.619H180.725L184.987 193.172V225.233Z" fill="white" stroke="black" stroke-miterlimit="10" stroke-linejoin="round"/>
<path d="M180.725 189.619V193.233H184.987L180.725 189.619Z" fill="white" stroke="black" stroke-miterlimit="10" stroke-linejoin="round"/>
<path d="M172.2 192.616H150.887V200.4H172.2V192.616Z" fill="black"/>
<path d="M159.598 202.624H182.578" stroke="black" stroke-miterlimit="10"/>
<path d="M159.598 206.887H182.578" stroke="black" stroke-miterlimit="10"/>
<path d="M159.598 211.149H182.578" stroke="black" stroke-miterlimit="10"/>
<path d="M159.598 215.411H182.578" stroke="black" stroke-miterlimit="10"/>
<path d="M159.598 219.674H182.578" stroke="black" stroke-miterlimit="10"/>
<path d="M157.393 199.288V194.243H156.358V193.673H159.046V194.243H158.011V199.288H157.393Z" fill="white"/>
<path d="M160.866 196.865L159.927 199.288H159.334L160.465 196.392L159.406 193.673H160.056L160.922 195.919L161.796 193.673H162.382L161.331 196.392L162.454 199.288H161.797L160.866 196.865Z" fill="white"/>
<path d="M163.769 199.288V194.243H162.734V193.673H165.421V194.243H164.386V199.288H163.769Z" fill="white"/>
</g>
<g opacity="0.3">
<path d="M57.7937 172.468H19.3469V124.505H52.0535L57.7937 129.29V172.468Z" fill="white" stroke="black" stroke-miterlimit="10" stroke-linejoin="round"/>
<path d="M52.0536 124.505V129.371H57.7938L52.0536 124.505Z" fill="white" stroke="black" stroke-miterlimit="10" stroke-linejoin="round"/>
<path d="M40.5726 128.541H11.8704V139.024H40.5726V128.541Z" fill="black"/>
<path d="M23.601 142.019H54.549" stroke="black" stroke-miterlimit="10"/>
<path d="M23.601 147.759H54.549" stroke="black" stroke-miterlimit="10"/>
<path d="M23.601 153.499H54.549" stroke="black" stroke-miterlimit="10"/>
<path d="M23.601 159.24H54.549" stroke="black" stroke-miterlimit="10"/>
<path d="M23.601 164.98H54.549" stroke="black" stroke-miterlimit="10"/>
<path d="M21.1932 129.964C22.3818 129.964 22.8894 130.666 22.8894 131.811V132.718C22.8894 133.918 22.3272 134.544 21.1284 134.544H20.3832V137.526H19.5402V129.964H21.1932ZM21.1284 133.788C21.7548 133.788 22.0572 133.496 22.0572 132.772V131.768C22.0572 131.077 21.8088 130.73 21.1932 130.73H20.3832V133.788H21.1284Z" fill="white"/>
<path d="M25.3505 129.964C26.5283 129.964 27.0683 130.676 27.0683 131.843V135.656C27.0683 136.813 26.5283 137.525 25.3505 137.525H23.5793V129.963H25.3505V129.964ZM25.3403 136.759C25.9451 136.759 26.2367 136.381 26.2367 135.69V131.801C26.2367 131.11 25.9451 130.732 25.3289 130.732H24.4217V136.76L25.3403 136.759Z" fill="white"/>
<path d="M30.438 133.485V134.252H28.6986V137.525H27.8556V129.963H30.8592V130.73H28.6986V133.484H30.438V133.485Z" fill="white"/>
</g>
<g opacity="0.3">
<path d="M42 238.082H23.0526V214.445H39.171L42 216.803V238.082Z" fill="white" stroke="black" stroke-miterlimit="10" stroke-linejoin="round"/>
<path d="M39.171 214.445V216.844H42L39.171 214.445Z" fill="white" stroke="black" stroke-miterlimit="10" stroke-linejoin="round"/>
<path d="M33.513 216.434H19.368V221.6H33.513V216.434Z" fill="black"/>
<path d="M25.149 223.076H40.401" stroke="black" stroke-miterlimit="10"/>
<path d="M25.149 225.905H40.401" stroke="black" stroke-miterlimit="10"/>
<path d="M25.149 228.734H40.401" stroke="black" stroke-miterlimit="10"/>
<path d="M25.149 231.563H40.401" stroke="black" stroke-miterlimit="10"/>
<path d="M25.149 234.392H40.401" stroke="black" stroke-miterlimit="10"/>
<path d="M23.9629 217.135C24.5491 217.135 24.7987 217.481 24.7987 218.045V218.492C24.7987 219.083 24.5221 219.392 23.9311 219.392H23.5639V220.862H23.1481V217.135H23.9629ZM23.9311 219.02C24.2395 219.02 24.3889 218.876 24.3889 218.519V218.024C24.3889 217.683 24.2665 217.513 23.9629 217.513H23.5639V219.019L23.9311 219.02Z" fill="white"/>
<path d="M26.0119 217.135C26.5921 217.135 26.8585 217.487 26.8585 218.062V219.941C26.8585 220.51 26.5921 220.862 26.0119 220.862H25.1389V217.135H26.0119ZM26.0065 220.484C26.3047 220.484 26.4481 220.298 26.4481 219.957V218.04C26.4481 217.699 26.3041 217.513 26.0011 217.513H25.5541V220.484H26.0065Z" fill="white"/>
<path d="M28.5187 218.87V219.248H27.6619V220.862H27.2461V217.135H28.7263V217.513H27.6619V218.87H28.5187Z" fill="white"/>
</g>
<g opacity="0.3">
<path d="M282.881 62.6334H263.934V38.9964H280.052L282.881 41.3544V62.6334Z" fill="white" stroke="black" stroke-miterlimit="10" stroke-linejoin="round"/>
<path d="M280.052 38.9964V41.3946H282.881L280.052 38.9964Z" fill="white" stroke="black" stroke-miterlimit="10" stroke-linejoin="round"/>
<path d="M274.394 40.9854H260.249V46.1514H274.394V40.9854Z" fill="black"/>
<path d="M266.03 47.6274H281.282" stroke="black" stroke-miterlimit="10"/>
<path d="M266.03 50.4564H281.282" stroke="black" stroke-miterlimit="10"/>
<path d="M266.03 53.2854H281.282" stroke="black" stroke-miterlimit="10"/>
<path d="M266.03 56.1144H281.282" stroke="black" stroke-miterlimit="10"/>
<path d="M266.03 58.9434H281.282" stroke="black" stroke-miterlimit="10"/>
<path d="M264.844 41.6868C265.43 41.6868 265.68 42.033 265.68 42.5976V43.0446C265.68 43.6356 265.403 43.9446 264.812 43.9446H264.445V45.414H264.03V41.6874L264.844 41.6868ZM264.812 43.5714C265.121 43.5714 265.27 43.4274 265.27 43.071V42.576C265.27 42.2352 265.148 42.0648 264.844 42.0648H264.445V43.5714H264.812Z" fill="white"/>
<path d="M266.893 41.6868C267.473 41.6868 267.74 42.0384 267.74 42.6132V44.4924C267.74 45.0624 267.473 45.4134 266.893 45.4134H266.02V41.6868H266.893ZM266.888 45.0354C267.186 45.0354 267.329 44.8494 267.329 44.5086V42.5916C267.329 42.2508 267.185 42.0648 266.882 42.0648H266.435V45.0354H266.888Z" fill="white"/>
<path d="M269.4 43.422V43.8H268.543V45.4134H268.127V41.6868H269.608V42.0648H268.543V43.422H269.4Z" fill="white"/>
</g>
<path d="M249.288 29.7516H48.6144V186.6H249.288V29.7516Z" fill="#263238" stroke="#263238" stroke-miterlimit="10"/>
<path d="M256.4 23.6148H55.1201V180.833H256.4V23.6148Z" fill="#26B0FF"/>
<path d="M256.4 23.6148H55.1201V180.833H256.4V23.6148Z" fill="white" stroke="#263238" stroke-miterlimit="10" stroke-linecap="round" stroke-linejoin="round"/>
<path d="M103.2 45.897H60.6V72.897H103.2V45.897Z" fill="white" stroke="#263238" stroke-miterlimit="10" stroke-linecap="round" stroke-linejoin="round"/>
<path d="M72.2999 57.6H90.2999" stroke="#263238" stroke-miterlimit="10"/>
<path d="M67.7999 62.1H97.4999" stroke="#263238" stroke-miterlimit="10"/>
<path d="M103.2 77.997H60.6V104.997H103.2V77.997Z" fill="white" stroke="#263238" stroke-miterlimit="10" stroke-linecap="round" stroke-linejoin="round"/>
<path d="M65.0364 84.4038H79.977" stroke="#263238" stroke-miterlimit="10"/>
<path d="M65.0364 87.9798H79.977" stroke="#263238" stroke-miterlimit="10"/>
<path d="M65.0364 91.5552H79.977" stroke="#263238" stroke-miterlimit="10"/>
<path d="M65.0364 95.1312H79.977" stroke="#263238" stroke-miterlimit="10"/>
<path d="M65.0364 98.7072H79.977" stroke="#263238" stroke-miterlimit="10"/>
<path d="M83.5289 84.4038H98.4695" stroke="#263238" stroke-miterlimit="10"/>
<path d="M83.5289 87.9798H98.4695" stroke="#263238" stroke-miterlimit="10"/>
<path d="M83.5289 91.5552H98.4695" stroke="#263238" stroke-miterlimit="10"/>
<path d="M83.5289 95.1312H98.4695" stroke="#263238" stroke-miterlimit="10"/>
<path d="M83.5289 98.7072H98.4695" stroke="#263238" stroke-miterlimit="10"/>
<path d="M103.2 110.097H60.6V137.097H103.2V110.097Z" fill="white" stroke="#263238" stroke-miterlimit="10" stroke-linecap="round" stroke-linejoin="round"/>
<path d="M65.0364 116.504H79.977" stroke="#263238" stroke-miterlimit="10"/>
<path d="M65.0364 120.08H79.977" stroke="#263238" stroke-miterlimit="10"/>
<path d="M65.0364 123.655H79.977" stroke="#263238" stroke-miterlimit="10"/>
<path d="M65.0364 127.231H79.977" stroke="#263238" stroke-miterlimit="10"/>
<path d="M65.0364 130.807H79.977" stroke="#263238" stroke-miterlimit="10"/>
<path d="M83.5289 116.504H98.4695" stroke="#263238" stroke-miterlimit="10"/>
<path d="M83.5289 120.08H98.4695" stroke="#263238" stroke-miterlimit="10"/>
<path d="M83.5289 123.655H98.4695" stroke="#263238" stroke-miterlimit="10"/>
<path d="M83.5289 127.231H98.4695" stroke="#263238" stroke-miterlimit="10"/>
<path d="M83.5289 130.807H98.4695" stroke="#263238" stroke-miterlimit="10"/>
<path d="M103.2 142.197H60.6V169.197H103.2V142.197Z" fill="white" stroke="#263238" stroke-miterlimit="10" stroke-linecap="round" stroke-linejoin="round"/>
<path d="M65.0364 148.604H79.977" stroke="#263238" stroke-miterlimit="10"/>
<path d="M65.0364 152.18H79.977" stroke="#263238" stroke-miterlimit="10"/>
<path d="M65.0364 155.755H79.977" stroke="#263238" stroke-miterlimit="10"/>
<path d="M65.0364 159.331H79.977" stroke="#263238" stroke-miterlimit="10"/>
<path d="M65.0364 162.907H79.977" stroke="#263238" stroke-miterlimit="10"/>
<path d="M83.5289 148.604H98.4695" stroke="#263238" stroke-miterlimit="10"/>
<path d="M83.5289 152.18H98.4695" stroke="#263238" stroke-miterlimit="10"/>
<path d="M83.5289 155.755H98.4695" stroke="#263238" stroke-miterlimit="10"/>
<path d="M83.5289 159.331H98.4695" stroke="#263238" stroke-miterlimit="10"/>
<path d="M83.5289 162.907H98.4695" stroke="#263238" stroke-miterlimit="10"/>
<path d="M256.4 23.6148H109.2V180.833H256.4V23.6148Z" fill="#B8B8B8" stroke="#263238" stroke-miterlimit="10" stroke-linecap="round" stroke-linejoin="round"/>
<path d="M246.6 53.4H113.4V144H246.6V53.4Z" fill="white" stroke="#263238" stroke-miterlimit="10" stroke-linecap="round" stroke-linejoin="round"/>
<path d="M144.346 89.361H217.454" stroke="#263238" stroke-miterlimit="10"/>
<path d="M134.413 97.3074H227.387" stroke="#263238" stroke-miterlimit="10"/>
<path d="M256.4 23.6148H251.198V180.833H256.4V23.6148Z" fill="#DBDBDB" stroke="#263238" stroke-miterlimit="10"/>
<path d="M256.4 72.3234H251.198V114.806H256.4V72.3234Z" fill="#878787"/>
<path d="M256.4 23.6148H55.1201V33.8244H256.4V23.6148Z" fill="#26B0FF" stroke="#263238" stroke-miterlimit="10" stroke-linecap="round" stroke-linejoin="round"/>
<path d="M197.767 25.3554H68.361V31.1166H197.767V25.3554Z" fill="white"/>
<path d="M246.597 37.44H236.602" stroke="#263238" stroke-miterlimit="10"/>
<path d="M246.597 40.5156H236.602" stroke="#263238" stroke-miterlimit="10"/>
<path d="M246.597 43.5912H236.602" stroke="#263238" stroke-miterlimit="10"/>
<path d="M258.601 245.063L261.033 238.114" stroke="#263238" stroke-miterlimit="10" stroke-linecap="round" stroke-linejoin="round"/>
<path d="M258.775 226.3V252.185" stroke="#263238" stroke-miterlimit="10" stroke-linecap="round" stroke-linejoin="round"/>
<path d="M254.792 239.733C254.792 239.733 251.186 235.799 247.58 236.455C243.974 237.11 242.335 241.372 242.335 243.995C242.335 246.617 245.941 255.141 245.941 255.141C245.941 255.141 248.563 252.191 254.464 247.929C260.365 243.667 260.692 239.405 254.792 239.733Z" fill="#26B0FF" stroke="#263238" stroke-miterlimit="10" stroke-linecap="round" stroke-linejoin="round"/>
<path d="M254.792 239.733C254.792 239.733 250.202 242.027 247.58 247.273" stroke="#263238" stroke-miterlimit="10" stroke-linecap="round" stroke-linejoin="round"/>
<path d="M260.668 235.114C260.668 235.114 263.647 231.881 266.617 232.429C269.586 232.976 270.928 236.491 270.922 238.652C270.916 240.812 267.926 247.827 267.926 247.827C267.926 247.827 265.772 245.39 260.92 241.867C256.067 238.343 255.806 234.831 260.668 235.114Z" fill="#26B0FF" stroke="#263238" stroke-miterlimit="10" stroke-linecap="round" stroke-linejoin="round"/>
<path d="M260.668 235.114C260.668 235.114 264.444 237.015 266.593 241.342" stroke="#263238" stroke-miterlimit="10" stroke-linecap="round" stroke-linejoin="round"/>
<path d="M258.253 230.817L262.77 224.216" stroke="#263238" stroke-miterlimit="10" stroke-linecap="round" stroke-linejoin="round"/>
<path d="M257.497 228.908C257.497 228.908 257.423 224.512 254.841 222.946C252.259 221.38 248.92 223.112 247.487 224.729C246.054 226.346 243.62 233.573 243.62 233.573C243.62 233.573 246.849 233.187 252.817 233.783C258.783 234.379 261.314 231.931 257.497 228.908Z" fill="#26B0FF" stroke="#263238" stroke-miterlimit="10" stroke-linecap="round" stroke-linejoin="round"/>
<path d="M257.497 228.908C257.497 228.908 253.413 227.815 248.929 229.616" stroke="#263238" stroke-miterlimit="10" stroke-linecap="round" stroke-linejoin="round"/>
<path d="M261.38 223.015C261.38 223.015 261.435 219.779 263.335 218.626C265.235 217.473 267.694 218.748 268.749 219.939C269.804 221.129 271.595 226.448 271.595 226.448C271.595 226.448 269.218 226.164 264.826 226.603C260.433 227.042 258.57 225.24 261.38 223.015Z" fill="#26B0FF" stroke="#263238" stroke-miterlimit="10" stroke-linecap="round" stroke-linejoin="round"/>
<path d="M261.38 223.015C261.38 223.015 264.386 222.211 267.686 223.537" stroke="#263238" stroke-miterlimit="10" stroke-linecap="round" stroke-linejoin="round"/>
<path d="M269.813 249.964H246.527L248.887 274.208H267.454L269.813 249.964Z" fill="white" stroke="#263238" stroke-miterlimit="10" stroke-linecap="round" stroke-linejoin="round"/>
<path d="M263.639 260.524C263.639 261.1 264.106 261.566 264.681 261.566C265.256 261.566 265.723 261.1 265.723 260.524C265.723 259.949 265.256 259.482 264.681 259.482C264.106 259.482 263.639 259.949 263.639 260.524Z" fill="#263238" stroke="#263238" stroke-miterlimit="10" stroke-linecap="round" stroke-linejoin="round"/>
<path d="M259.817 260.524C259.817 261.1 260.284 261.566 260.859 261.566C261.434 261.566 261.901 261.1 261.901 260.524C261.901 259.949 261.434 259.482 260.859 259.482C260.284 259.482 259.817 259.949 259.817 260.524Z" fill="#263238" stroke="#263238" stroke-miterlimit="10" stroke-linecap="round" stroke-linejoin="round"/>
<path d="M247.301 257.918H269.039L269.141 256.876H247.199L247.301 257.918Z" fill="#263238" stroke="#263238" stroke-miterlimit="10" stroke-linecap="round" stroke-linejoin="round"/>
<path d="M268.109 267.473L268.549 262.957H247.792L248.231 267.473H268.109Z" fill="#263238" stroke="#263238" stroke-miterlimit="10" stroke-linecap="round" stroke-linejoin="round"/>
<path d="M267.461 260.524C267.461 261.1 267.927 261.566 268.503 261.566C268.566 261.566 268.626 261.559 268.686 261.548L268.88 259.555C268.763 259.509 268.636 259.481 268.502 259.481C267.927 259.482 267.461 259.949 267.461 260.524Z" fill="#263238" stroke="#263238" stroke-miterlimit="10" stroke-linecap="round" stroke-linejoin="round"/>
<path d="M255.995 260.524C255.995 261.1 256.462 261.566 257.037 261.566C257.612 261.566 258.079 261.1 258.079 260.524C258.079 259.949 257.612 259.482 257.037 259.482C256.462 259.482 255.995 259.949 255.995 260.524Z" fill="#263238" stroke="#263238" stroke-miterlimit="10" stroke-linecap="round" stroke-linejoin="round"/>
<path d="M248.351 260.524C248.351 261.1 248.818 261.566 249.393 261.566C249.968 261.566 250.435 261.1 250.435 260.524C250.435 259.949 249.968 259.482 249.393 259.482C248.818 259.482 248.351 259.949 248.351 260.524Z" fill="#263238" stroke="#263238" stroke-miterlimit="10" stroke-linecap="round" stroke-linejoin="round"/>
<path d="M252.173 260.524C252.173 261.1 252.64 261.566 253.215 261.566C253.791 261.566 254.257 261.1 254.257 260.524C254.257 259.949 253.79 259.482 253.215 259.482C252.64 259.482 252.173 259.949 252.173 260.524Z" fill="#263238" stroke="#263238" stroke-miterlimit="10" stroke-linecap="round" stroke-linejoin="round"/>
<path d="M99.7609 274.263C102.64 270.713 107.786 264.448 109.553 262.807C112.057 260.482 114.382 257.621 114.382 257.621C114.382 257.621 111.341 263.522 116.528 268.172C121.714 272.822 137.094 269.245 140.492 266.741C143.89 264.238 144.247 257.8 141.207 248.321C138.167 238.843 133.874 221.317 134.054 215.237C134.233 209.156 130.298 191.988 128.51 187.339C126.721 182.689 119.389 179.291 111.878 177.682C104.366 176.072 84.1585 184.477 84.1585 184.477L80.0455 186.087C80.0455 186.087 63.2347 195.386 58.7641 199.142C54.2935 202.897 56.4391 213.27 55.3663 223.285C54.2935 233.299 54.2935 244.924 54.2935 244.924C54.2935 244.924 43.9201 254.044 36.4093 264.416C32.7961 269.405 30.7171 272.447 29.5291 274.263H99.7609Z" fill="#26B0FF" stroke="#263238" stroke-miterlimit="10"/>
<path d="M136.647 254.889C136.647 254.889 130.676 253.484 124.354 257.699C118.031 261.914 119.788 268.236 125.407 269.641C131.027 271.046 138.403 271.046 142.267 265.075C146.131 259.104 139.457 254.538 136.647 254.889Z" fill="white" stroke="#263238" stroke-miterlimit="10"/>
<path d="M138.137 254.84C138.137 254.84 133.475 253.743 128.54 257.033C123.604 260.324 124.975 265.259 129.362 266.356C133.75 267.453 139.508 267.453 142.525 262.792C145.54 258.13 140.33 254.566 138.137 254.84Z" fill="white" stroke="#263238" stroke-miterlimit="10"/>
<path d="M124.251 214.841C124.452 211.577 124.575 209.354 124.575 209.156" stroke="#263238" stroke-miterlimit="10"/>
<path d="M114.382 257.621C114.382 257.621 120.82 251.362 121.892 244.208C122.554 239.798 123.419 227.778 123.986 219.038" stroke="#263238" stroke-miterlimit="10"/>
<path d="M131.86 226.963C130.241 232.173 127.241 239.986 122.608 245.281" stroke="#263238" stroke-miterlimit="10"/>
<path d="M133.338 221.496C133.338 221.496 133.084 222.698 132.55 224.618" stroke="#263238" stroke-miterlimit="10"/>
<path d="M132.776 241.887C130.392 244.594 126.657 248.193 121.714 251.003" stroke="#263238" stroke-miterlimit="10"/>
<path d="M135.842 237.949C135.842 237.949 135.114 239.092 133.708 240.794" stroke="#263238" stroke-miterlimit="10"/>
<path d="M142.101 253.15C142.101 253.15 133.874 250.11 123.86 253.508C113.845 256.906 114.918 264.596 115.812 265.847" stroke="#263238" stroke-miterlimit="10"/>
<path d="M114.957 128.528C114.957 128.528 114.957 126.421 112.059 121.943C109.161 117.464 94.4089 119.308 89.4037 124.313C84.3985 129.319 91.5109 135.641 88.3501 139.329C85.1887 143.017 74.6515 141.173 71.2267 147.759C67.8019 154.345 76.4953 157.506 78.3397 159.877C80.1835 162.248 75.1783 163.039 75.7051 165.409C76.2319 167.78 84.3985 168.044 84.3985 168.044C84.3985 168.044 79.1299 169.624 81.7639 171.732C84.3985 173.84 89.1403 175.947 94.4089 175.684C99.6775 175.42 98.3605 165.146 97.8337 157.507C97.3069 149.867 104.156 141.437 112.059 142.228C119.962 143.018 128.392 151.975 127.075 155.926C125.758 159.878 129.182 155.136 136.295 150.658C143.408 146.179 140.246 136.959 138.665 135.115C137.085 133.271 131.816 132.744 130.762 129.32C129.709 125.895 127.337 122.471 122.859 122.471C118.382 122.47 119.435 128.265 114.957 128.528Z" fill="#263238" stroke="#263238" stroke-miterlimit="10"/>
<path d="M92.3851 175.892C92.3851 175.892 88.9873 176.786 87.5563 178.575C86.1253 180.364 80.4025 183.583 80.0449 186.086C79.6873 188.59 81.8335 201.466 86.1253 206.652C90.4171 211.838 92.5633 212.196 92.5633 212.196C92.5633 212.196 93.8155 207.188 94.7095 206.831C95.6035 206.473 103.83 211.66 103.83 211.66C103.83 211.66 105.261 203.254 106.155 203.254C107.049 203.254 109.911 206.116 109.911 206.116C109.911 206.116 110.983 198.962 110.268 193.418C109.553 187.874 104.903 181.079 101.505 178.754C98.1073 176.429 95.4253 174.283 92.3851 175.892Z" fill="white" stroke="#263238" stroke-miterlimit="10"/>
<path d="M94.146 169.097L87.5604 184.904C87.5604 184.904 89.2578 192.268 91.491 196.996C94.5312 203.434 102.049 206.505 102.049 206.505C102.049 206.505 101.786 200.973 104.42 195.704C107.055 190.436 109.689 187.011 109.689 187.011C109.689 187.011 97.8342 175.42 94.146 169.097Z" fill="white" stroke="#263238" stroke-miterlimit="10"/>
<path d="M95.8483 175.09C95.8483 175.09 98.8795 192.412 103.21 197.825L107.324 190.03L96.4981 173.141L95.8483 175.09Z" fill="#263238" stroke="#263238" stroke-miterlimit="10"/>
<path d="M93.2791 226.503C93.2791 226.503 103.831 198.962 105.261 197.353C106.692 195.743 109.911 192.882 111.341 190.915C112.772 188.947 116.707 183.94 118.137 183.94C119.567 183.94 122.966 185.192 124.575 185.549C126.185 185.907 127.258 186.443 127.436 189.126C127.615 191.809 125.29 191.987 125.29 191.987L124.396 190.915C124.396 190.915 117.958 200.572 115.991 201.824C114.023 203.075 112.235 203.612 112.235 203.612L103.651 235.624L93.2791 226.503Z" fill="white" stroke="#263238" stroke-miterlimit="10"/>
<path d="M130.502 146.636C130.502 146.636 133.002 148.72 131.335 155.804C129.668 162.888 129.251 166.43 129.251 170.597C129.251 174.764 128.002 180.598 124.459 184.348C120.917 188.099 116.542 193.516 111.333 193.307C103.084 192.977 99.0403 181.639 96.3313 176.431C93.6229 171.222 92.9977 164.138 92.9977 161.221C92.9977 158.303 93.4147 151.428 97.1647 146.219C100.915 141.01 111.124 138.926 115.5 139.552C119.876 140.177 125.293 140.803 130.502 146.636Z" fill="white" stroke="#263238" stroke-miterlimit="10"/>
<path d="M94.8733 165.388C94.8733 165.388 95.7067 162.471 99.4573 160.804C103.208 159.137 105.499 156.22 104.25 153.512C102.999 150.803 103.624 148.094 109.042 146.636C114.459 145.177 115.918 150.595 121.126 149.761C126.335 148.928 127.794 146.844 130.503 148.094C133.211 149.344 131.961 152.887 131.961 152.887C131.961 152.887 135.295 146.844 128.836 139.969C122.377 133.093 106.75 130.592 95.9155 138.51C85.0813 146.428 91.3315 164.971 91.3315 164.971C91.3315 164.971 91.9561 165.805 94.8733 165.388Z" fill="#263238" stroke="#263238" stroke-miterlimit="10"/>
<path d="M120.918 168.931L120.293 181.015L115.917 179.348" stroke="#263238" stroke-miterlimit="10"/>
<path d="M117.584 185.39C117.584 185.39 113.417 186.016 111.542 183.098" stroke="#263238" stroke-miterlimit="10"/>
<path d="M112.985 168.802C112.792 169.994 112.128 170.879 111.503 170.777C110.879 170.676 110.53 169.627 110.723 168.434C110.917 167.242 111.581 166.357 112.205 166.459C112.83 166.56 113.179 167.609 112.985 168.802Z" fill="#263238"/>
<path d="M126.335 169.139C126.141 170.332 125.478 171.216 124.853 171.115C124.228 171.013 123.879 169.964 124.073 168.772C124.267 167.579 124.93 166.694 125.555 166.796C126.18 166.897 126.529 167.946 126.335 169.139Z" fill="#263238"/>
<path d="M107.662 163.361C107.662 163.361 112.143 159.458 115.758 162.494" stroke="#263238" stroke-width="2" stroke-miterlimit="10" stroke-linecap="round"/>
<path d="M123.419 162.494C123.419 162.494 126.455 159.892 129.058 162.349" stroke="#263238" stroke-width="2" stroke-miterlimit="10" stroke-linecap="round"/>
<path d="M118.649 165.964C118.649 165.964 112.288 164.951 102.457 166.542C102.457 166.542 101.59 173.192 106.216 176.083C110.842 178.975 115.323 176.228 116.48 174.637C118.768 171.491 118.649 165.964 118.649 165.964Z" stroke="#263238" stroke-width="2" stroke-miterlimit="10"/>
<path d="M133.249 165.054C133.249 165.054 128.698 164.087 121.666 165.607C121.666 165.607 121.045 171.964 124.354 174.728C127.664 177.492 130.87 174.866 131.697 173.346C133.334 170.339 133.249 165.054 133.249 165.054Z" stroke="#263238" stroke-width="2" stroke-miterlimit="10"/>
<path d="M118.649 165.964C118.649 165.964 119.335 164.093 121.666 165.607" stroke="#263238" stroke-width="2" stroke-miterlimit="10"/>
<path d="M92.7715 162.638L102.457 166.542" stroke="#263238" stroke-width="2" stroke-miterlimit="10"/>
<path d="M95.7067 166.43C95.7067 166.43 94.2481 157.888 90.2893 162.055C86.3305 166.222 89.8729 170.389 91.7479 172.265C93.6229 174.14 95.9149 172.265 95.9149 172.265" fill="white"/>
<path d="M95.7067 166.43C95.7067 166.43 94.2481 157.888 90.2893 162.055C86.3305 166.222 89.8729 170.389 91.7479 172.265C93.6229 174.14 95.9149 172.265 95.9149 172.265" stroke="#263238" stroke-miterlimit="10"/>
<path d="M80.0959 208.525C80.0959 208.525 83.9791 215.237 85.2313 223.82C86.4829 232.405 86.3041 234.014 86.3041 234.014L92.5633 226.503C92.5633 226.503 102.757 233.656 104.366 235.981C105.976 238.306 106.155 239.021 106.155 239.021C106.155 239.021 106.155 252.971 100.253 261.376C94.3519 269.781 91.4905 269.781 85.7677 269.781C80.0449 269.781 72.7129 264.416 68.7781 255.474C64.8439 246.532 61.6249 233.477 60.9091 232.225C60.1939 230.974 57.8689 223.82 57.8689 223.82" fill="#26B0FF"/>
<path d="M80.0959 208.525C80.0959 208.525 83.9791 215.237 85.2313 223.82C86.4829 232.405 86.3041 234.014 86.3041 234.014L92.5633 226.503C92.5633 226.503 102.757 233.656 104.366 235.981C105.976 238.306 106.155 239.021 106.155 239.021C106.155 239.021 106.155 252.971 100.253 261.376C94.3519 269.781 91.4905 269.781 85.7677 269.781C80.0449 269.781 72.7129 264.416 68.7781 255.474C64.8439 246.532 61.6249 233.477 60.9091 232.225C60.1939 230.974 57.8689 223.82 57.8689 223.82" stroke="#263238" stroke-miterlimit="10"/>
<path d="M77.7457 244.496C77.0953 245.259 76.5301 245.905 76.1107 246.354" stroke="#263238" stroke-miterlimit="10"/>
<path d="M86.3041 234.014C86.3041 234.014 82.9591 238.215 79.9633 241.845" stroke="#263238" stroke-miterlimit="10"/>
<path d="M87.1987 233.12C87.1987 233.12 92.2063 234.372 98.2867 237.949C104.367 241.526 104.904 245.461 106.692 244.03C108.481 242.599 109.911 238.128 108.123 235.624C106.334 233.12 100.791 227.219 96.8557 225.431C92.9215 223.642 91.3117 224.716 90.0601 227.398C88.8079 230.08 85.9465 231.511 87.1987 233.12Z" fill="white" stroke="#263238" stroke-miterlimit="10"/>
<path d="M86.9725 247.757C87.0985 249.819 87.3331 251.63 87.7351 252.792" stroke="#263238" stroke-miterlimit="10"/>
<path d="M87.1986 233.12C87.1986 233.12 86.7702 239.114 86.8608 244.702" stroke="#263238" stroke-miterlimit="10"/>
<path d="M93.2791 236.161C93.2791 236.161 94.5307 243.135 95.9617 246.175" stroke="#263238" stroke-miterlimit="10"/>
<path d="M135.663 253.508C135.663 253.508 129.583 264.238 130.477 265.49C131.371 266.741 151.222 265.49 151.222 265.49L152.295 261.197C152.295 261.197 156.408 262.807 159.627 262.807C162.846 262.807 160.342 261.913 159.269 260.84C158.196 259.767 151.937 255.832 151.4 255.475C150.864 255.117 140.492 252.434 135.663 253.508Z" fill="white" stroke="#263238" stroke-miterlimit="10"/>
<path d="M148.622 252.271C148.622 252.271 151.497 251.408 152.263 253.229C153.029 255.049 152.647 262.81 152.359 264.823C152.072 266.834 150.73 266.739 150.155 264.823C149.581 262.906 148.239 252.558 148.239 252.558L148.622 252.271Z" fill="white" stroke="#263238" stroke-miterlimit="10"/>
<path d="M142.586 253.133C142.586 253.133 146.897 250.163 148.143 251.696C149.389 253.229 150.538 265.301 150.922 266.164C151.305 267.026 149.293 267.697 148.526 266.835C147.76 265.973 145.556 261.565 144.886 259.936C144.215 258.307 142.586 253.133 142.586 253.133Z" fill="white" stroke="#263238" stroke-miterlimit="10"/>
<path d="M134.058 256.391C134.058 256.391 136.453 251.983 138.466 250.738C140.478 249.492 142.681 251.792 143.736 253.516C144.79 255.241 145.652 259.744 146.131 261.948C146.61 264.152 147.951 266.643 147.185 266.93C146.418 267.218 143.448 264.727 142.586 263.385C141.724 262.043 139.615 256.87 139.615 256.87" fill="white"/>
<path d="M134.058 256.391C134.058 256.391 136.453 251.983 138.466 250.738C140.478 249.492 142.681 251.792 143.736 253.516C144.79 255.241 145.652 259.744 146.131 261.948C146.61 264.152 147.951 266.643 147.185 266.93C146.418 267.218 143.448 264.727 142.586 263.385C141.724 262.043 139.615 256.87 139.615 256.87" stroke="#263238" stroke-miterlimit="10"/>
<path d="M137.987 264.727C137.987 264.727 134.537 261.373 133.388 260.319C132.238 259.265 130.609 258.786 129.46 260.032C128.31 261.277 127.735 262.81 129.46 264.439C131.184 266.068 135.304 268.176 137.987 268.176C140.67 268.176 140.191 266.834 139.52 266.068C138.849 265.301 137.987 264.727 137.987 264.727Z" fill="white" stroke="#263238" stroke-miterlimit="10"/>
<path d="M103.854 274.208H229.583V270.611H103.854V274.208Z" fill="#B8B8B8" stroke="#263238" stroke-miterlimit="10" stroke-linecap="round" stroke-linejoin="round"/>
<path d="M103.854 274.208H147.99V270.611H103.854V274.208Z" fill="#263238" stroke="#263238" stroke-miterlimit="10" stroke-linecap="round" stroke-linejoin="round"/>
<path d="M144.434 270.611H226.068L230.783 216.315C231.008 213.73 229.094 211.634 226.508 211.634H154.238C151.653 211.634 149.375 213.73 149.15 216.315L144.434 270.611Z" fill="#263238" stroke="#263238" stroke-miterlimit="10" stroke-linecap="round" stroke-linejoin="round"/>
<path d="M146 270.611H227.633L232.349 216.315C232.573 213.73 230.659 211.634 228.074 211.634H155.803C153.218 211.634 150.94 213.73 150.715 216.315L146 270.611Z" fill="#B8B8B8" stroke="#263238" stroke-miterlimit="10" stroke-linecap="round" stroke-linejoin="round"/>
<path d="M187.362 239.406C187.607 236.579 190.098 234.288 192.925 234.288C195.751 234.288 197.844 236.579 197.598 239.406C197.353 242.233 194.862 244.524 192.035 244.524C189.209 244.524 187.116 242.233 187.362 239.406Z" fill="#263238" stroke="#263238" stroke-miterlimit="10" stroke-linecap="round" stroke-linejoin="round"/>
<path d="M291.619 274.208H10.4526" stroke="#263238" stroke-miterlimit="10"/>
</svg>
