<svg width="373" height="393" viewBox="0 0 373 393" fill="none" xmlns="http://www.w3.org/2000/svg">
<path d="M256.949 190.137C256.949 190.137 277.955 205.878 283.514 212.792C289.074 219.705 296.923 255.894 296.923 255.894L260.859 239.359L256.949 190.137Z" fill="#E4897B"/>
<path d="M189.991 295.281C189.991 295.281 214.518 335.173 234.155 337.137C253.792 339.101 257.459 366.24 267.929 382.526C278.398 398.812 372.621 389.506 372.621 389.506C372.621 389.506 301.905 314.554 298.468 283.87C296.446 265.812 189.991 295.281 189.991 295.281Z" fill="#E4897B"/>
<g clip-path="url(#clip0_133_4199)">
<path d="M289.143 70.6432C223.687 26.4925 70.4882 16.6033 23.0576 86.922C-24.373 157.241 74.8744 213.37 140.33 257.52C205.787 301.671 239.822 396.144 304.012 300.979C351.442 230.661 354.599 114.794 289.143 70.6432Z" fill="#095FAF" fill-opacity="0.05"/>
<path d="M270.441 56.7296C270.435 56.7296 270.429 56.7315 270.422 56.7317V19.2859C270.422 15.2319 268.812 11.3438 265.945 8.47715C263.078 5.61048 259.19 4 255.136 4H137.902C133.848 4 129.96 5.61048 127.094 8.47715C124.227 11.3438 122.617 15.2319 122.616 19.2859V38.4826C122.293 38.4895 121.985 38.6229 121.758 38.8541C121.532 39.0853 121.405 39.3961 121.404 39.7198V49.2281C121.405 49.5518 121.532 49.8626 121.758 50.0938C121.985 50.325 122.293 50.4583 122.616 50.4651V60.426H122.554C122.392 60.426 122.23 60.458 122.08 60.5203C121.929 60.5827 121.793 60.674 121.678 60.7891C121.562 60.9043 121.471 61.041 121.409 61.1914C121.347 61.3418 121.314 61.5031 121.314 61.6659V80.0526C121.314 80.2154 121.347 80.3767 121.409 80.5271C121.471 80.6776 121.562 80.8142 121.678 80.9294C121.793 81.0445 121.929 81.1358 122.08 81.1982C122.23 81.2605 122.392 81.2925 122.554 81.2925H122.616V88.5951H122.597C122.434 88.5951 122.273 88.6272 122.123 88.6895C121.972 88.7518 121.836 88.8432 121.72 88.9583C121.605 89.0734 121.514 89.2101 121.452 89.3606C121.389 89.511 121.357 89.6722 121.357 89.8351V108.402C121.357 108.564 121.389 108.726 121.452 108.876C121.514 109.027 121.605 109.163 121.72 109.278C121.836 109.394 121.972 109.485 122.123 109.547C122.273 109.609 122.434 109.642 122.597 109.642H122.616V289.11C122.617 293.164 124.227 297.052 127.094 299.918C129.96 302.785 133.848 304.396 137.902 304.396H255.136C259.19 304.396 263.078 302.785 265.945 299.918C268.812 297.052 270.422 293.164 270.422 289.11V93.1416C270.429 93.1416 270.435 93.1435 270.441 93.1435C270.731 93.1435 271.018 93.0864 271.286 92.9755C271.554 92.8645 271.798 92.7019 272.003 92.4969C272.208 92.2919 272.37 92.0485 272.481 91.7806C272.592 91.5128 272.649 91.2257 272.649 90.9357V58.9376C272.649 58.352 272.417 57.7904 272.003 57.3763C271.589 56.9623 271.027 56.7296 270.441 56.7296Z" fill="#3F3D56"/>
<path d="M261.296 23.5658V284.828C261.295 287.94 260.057 290.925 257.856 293.126C255.654 295.327 252.669 296.563 249.556 296.563H143.484C140.371 296.563 137.386 295.327 135.184 293.126C132.983 290.925 131.745 287.94 131.744 284.828V23.5658C131.744 20.4523 132.981 17.4662 135.183 15.2646C137.384 13.063 140.37 11.8262 143.484 11.8262H159.357V13.8863C159.358 16.4497 160.376 18.9078 162.189 20.7204C164.002 22.533 166.46 23.5518 169.023 23.553H222.989C225.549 23.5473 228.002 22.5263 229.81 20.7141C231.619 18.9019 232.634 16.4463 232.634 13.8863V11.8476H249.556C252.666 11.8476 255.649 13.0815 257.85 15.2785C260.051 17.4755 261.29 20.456 261.296 23.5658Z" fill="white"/>
<rect x="139.422" y="187.707" width="114" height="36.0587" rx="10.5556" fill="#EBEDF1"/>
<path d="M187.721 195.386C187.721 195.699 187.696 195.979 187.647 196.226C187.599 196.472 187.523 196.68 187.419 196.852C187.314 197.023 187.178 197.154 187.01 197.244C186.842 197.334 186.639 197.379 186.401 197.379C186.102 197.379 185.856 197.3 185.661 197.143C185.467 196.984 185.323 196.756 185.229 196.459C185.135 196.161 185.089 195.803 185.089 195.386C185.089 194.969 185.131 194.612 185.216 194.315C185.302 194.016 185.442 193.787 185.635 193.628C185.827 193.469 186.083 193.39 186.401 193.39C186.701 193.39 186.949 193.469 187.143 193.628C187.339 193.786 187.484 194.014 187.578 194.312C187.673 194.609 187.721 194.967 187.721 195.386ZM185.717 195.386C185.717 195.713 185.738 195.986 185.78 196.205C185.825 196.424 185.897 196.588 185.998 196.698C186.099 196.806 186.233 196.86 186.401 196.86C186.569 196.86 186.703 196.806 186.804 196.698C186.904 196.59 186.977 196.427 187.021 196.207C187.067 195.988 187.09 195.714 187.09 195.386C187.09 195.061 187.068 194.788 187.024 194.569C186.979 194.35 186.907 194.186 186.806 194.076C186.706 193.965 186.57 193.909 186.401 193.909C186.231 193.909 186.096 193.965 185.995 194.076C185.896 194.186 185.825 194.35 185.78 194.569C185.738 194.788 185.717 195.061 185.717 195.386ZM191.044 195.386C191.044 195.699 191.02 195.979 190.97 196.226C190.923 196.472 190.847 196.68 190.742 196.852C190.638 197.023 190.502 197.154 190.334 197.244C190.166 197.334 189.963 197.379 189.724 197.379C189.426 197.379 189.179 197.3 188.985 197.143C188.791 196.984 188.646 196.756 188.553 196.459C188.459 196.161 188.412 195.803 188.412 195.386C188.412 194.969 188.455 194.612 188.54 194.315C188.626 194.016 188.766 193.787 188.958 193.628C189.151 193.469 189.406 193.39 189.724 193.39C190.025 193.39 190.272 193.469 190.467 193.628C190.663 193.786 190.808 194.014 190.901 194.312C190.997 194.609 191.044 194.967 191.044 195.386ZM189.041 195.386C189.041 195.713 189.062 195.986 189.104 196.205C189.148 196.424 189.221 196.588 189.322 196.698C189.422 196.806 189.557 196.86 189.724 196.86C189.892 196.86 190.027 196.806 190.127 196.698C190.228 196.59 190.301 196.427 190.345 196.207C190.391 195.988 190.414 195.714 190.414 195.386C190.414 195.061 190.392 194.788 190.347 194.569C190.303 194.35 190.231 194.186 190.13 194.076C190.029 193.965 189.894 193.909 189.724 193.909C189.555 193.909 189.42 193.965 189.319 194.076C189.22 194.186 189.148 194.35 189.104 194.569C189.062 194.788 189.041 195.061 189.041 195.386ZM191.855 196.997C191.855 196.852 191.892 196.751 191.967 196.693C192.043 196.632 192.135 196.602 192.242 196.602C192.35 196.602 192.442 196.632 192.518 196.693C192.596 196.751 192.635 196.852 192.635 196.997C192.635 197.139 192.596 197.241 192.518 197.305C192.442 197.367 192.35 197.398 192.242 197.398C192.135 197.398 192.043 197.367 191.967 197.305C191.892 197.241 191.855 197.139 191.855 196.997ZM191.855 194.728C191.855 194.582 191.892 194.478 191.967 194.418C192.043 194.358 192.135 194.328 192.242 194.328C192.35 194.328 192.442 194.358 192.518 194.418C192.596 194.478 192.635 194.582 192.635 194.728C192.635 194.868 192.596 194.97 192.518 195.033C192.442 195.095 192.35 195.126 192.242 195.126C192.135 195.126 192.043 195.095 191.967 195.033C191.892 194.97 191.855 194.868 191.855 194.728ZM196.075 195.386C196.075 195.699 196.05 195.979 196.001 196.226C195.953 196.472 195.877 196.68 195.773 196.852C195.669 197.023 195.533 197.154 195.365 197.244C195.197 197.334 194.994 197.379 194.755 197.379C194.456 197.379 194.21 197.3 194.015 197.143C193.821 196.984 193.677 196.756 193.583 196.459C193.49 196.161 193.443 195.803 193.443 195.386C193.443 194.969 193.485 194.612 193.57 194.315C193.657 194.016 193.796 193.787 193.989 193.628C194.182 193.469 194.437 193.39 194.755 193.39C195.055 193.39 195.303 193.469 195.497 193.628C195.693 193.786 195.838 194.014 195.932 194.312C196.027 194.609 196.075 194.967 196.075 195.386ZM194.071 195.386C194.071 195.713 194.092 195.986 194.135 196.205C194.179 196.424 194.251 196.588 194.352 196.698C194.453 196.806 194.587 196.86 194.755 196.86C194.923 196.86 195.057 196.806 195.158 196.698C195.259 196.59 195.331 196.427 195.375 196.207C195.421 195.988 195.444 195.714 195.444 195.386C195.444 195.061 195.422 194.788 195.378 194.569C195.334 194.35 195.261 194.186 195.161 194.076C195.06 193.965 194.925 193.909 194.755 193.909C194.585 193.909 194.45 193.965 194.349 194.076C194.25 194.186 194.179 194.35 194.135 194.569C194.092 194.788 194.071 195.061 194.071 195.386ZM198.092 194.903C198.341 194.903 198.56 194.948 198.749 195.038C198.94 195.127 199.089 195.258 199.195 195.431C199.301 195.602 199.354 195.812 199.354 196.062C199.354 196.334 199.296 196.569 199.181 196.767C199.067 196.963 198.898 197.114 198.675 197.22C198.452 197.326 198.181 197.379 197.861 197.379C197.658 197.379 197.468 197.361 197.291 197.326C197.117 197.291 196.965 197.238 196.838 197.167V196.605C196.971 196.679 197.13 196.74 197.315 196.788C197.501 196.834 197.678 196.857 197.848 196.857C198.028 196.857 198.183 196.83 198.312 196.777C198.441 196.724 198.54 196.643 198.609 196.533C198.68 196.424 198.715 196.285 198.715 196.117C198.715 195.895 198.643 195.723 198.5 195.603C198.359 195.481 198.137 195.42 197.835 195.42C197.729 195.42 197.616 195.43 197.496 195.449C197.377 195.467 197.278 195.486 197.199 195.508L196.926 195.346L197.071 193.451H199.086V193.999H197.62L197.535 194.964C197.599 194.95 197.675 194.937 197.763 194.925C197.852 194.91 197.961 194.903 198.092 194.903ZM200.21 196.997C200.21 196.852 200.247 196.751 200.321 196.693C200.397 196.632 200.489 196.602 200.597 196.602C200.704 196.602 200.796 196.632 200.872 196.693C200.95 196.751 200.989 196.852 200.989 196.997C200.989 197.139 200.95 197.241 200.872 197.305C200.796 197.367 200.704 197.398 200.597 197.398C200.489 197.398 200.397 197.367 200.321 197.305C200.247 197.241 200.21 197.139 200.21 196.997ZM204.424 195.102C204.424 195.332 204.407 195.557 204.374 195.778C204.342 195.999 204.285 196.206 204.204 196.398C204.124 196.591 204.014 196.761 203.873 196.91C203.733 197.057 203.556 197.171 203.343 197.254C203.129 197.338 202.871 197.379 202.569 197.379C202.493 197.379 202.404 197.375 202.303 197.366C202.204 197.359 202.123 197.348 202.06 197.334V196.814C202.127 196.834 202.202 196.85 202.285 196.862C202.37 196.873 202.454 196.878 202.537 196.878C202.864 196.878 203.118 196.817 203.3 196.695C203.484 196.573 203.614 196.405 203.69 196.192C203.768 195.978 203.812 195.735 203.822 195.463H203.79C203.739 195.547 203.675 195.625 203.597 195.696C203.519 195.765 203.423 195.82 203.308 195.863C203.193 195.903 203.054 195.924 202.889 195.924C202.667 195.924 202.472 195.877 202.306 195.783C202.142 195.69 202.014 195.554 201.922 195.375C201.832 195.195 201.787 194.978 201.787 194.726C201.787 194.452 201.839 194.216 201.943 194.018C202.047 193.82 202.195 193.668 202.386 193.562C202.576 193.454 202.801 193.4 203.059 193.4C203.253 193.4 203.433 193.436 203.597 193.506C203.763 193.575 203.908 193.681 204.032 193.824C204.155 193.966 204.252 194.143 204.321 194.357C204.39 194.569 204.424 194.818 204.424 195.102ZM203.067 193.915C202.871 193.915 202.711 193.981 202.587 194.113C202.463 194.244 202.402 194.446 202.402 194.718C202.402 194.939 202.455 195.114 202.561 195.243C202.667 195.372 202.829 195.436 203.048 195.436C203.2 195.436 203.331 195.405 203.441 195.343C203.552 195.28 203.638 195.199 203.698 195.102C203.76 195.005 203.79 194.906 203.79 194.805C203.79 194.701 203.775 194.597 203.745 194.492C203.717 194.388 203.673 194.293 203.613 194.206C203.553 194.12 203.477 194.05 203.385 193.997C203.295 193.942 203.189 193.915 203.067 193.915ZM207.753 195.386C207.753 195.699 207.728 195.979 207.679 196.226C207.631 196.472 207.555 196.68 207.451 196.852C207.347 197.023 207.211 197.154 207.043 197.244C206.875 197.334 206.672 197.379 206.433 197.379C206.134 197.379 205.888 197.3 205.693 197.143C205.499 196.984 205.355 196.756 205.261 196.459C205.168 196.161 205.121 195.803 205.121 195.386C205.121 194.969 205.163 194.612 205.248 194.315C205.335 194.016 205.474 193.787 205.667 193.628C205.86 193.469 206.115 193.39 206.433 193.39C206.733 193.39 206.981 193.469 207.175 193.628C207.371 193.786 207.516 194.014 207.61 194.312C207.705 194.609 207.753 194.967 207.753 195.386ZM205.749 195.386C205.749 195.713 205.77 195.986 205.813 196.205C205.857 196.424 205.929 196.588 206.03 196.698C206.131 196.806 206.265 196.86 206.433 196.86C206.601 196.86 206.735 196.806 206.836 196.698C206.937 196.59 207.009 196.427 207.053 196.207C207.099 195.988 207.122 195.714 207.122 195.386C207.122 195.061 207.1 194.788 207.056 194.569C207.012 194.35 206.939 194.186 206.839 194.076C206.738 193.965 206.603 193.909 206.433 193.909C206.263 193.909 206.128 193.965 206.027 194.076C205.928 194.186 205.857 194.35 205.813 194.569C205.77 194.788 205.749 195.061 205.749 195.386Z" fill="#667085"/>
<path d="M185.237 209.117H185.974V210.8H185.237V209.117ZM183.786 211.293H184.523V208.624H183.786V211.293ZM182.359 212.674H183.096V207.243H182.359V212.674ZM181.003 213.74H181.739V206.227H181.003V213.738V213.74ZM179.551 211.905H180.287V208.012H179.551V211.905ZM178.076 214.851H178.812V204.9H178.073V214.851H178.076ZM176.624 216.277H177.36V203.64H176.624V216.277ZM175.197 214.326H175.934V205.591H175.197V214.326V214.326ZM173.721 211.846H174.458V208.164H173.721V211.846ZM172.294 210.968H173.031V208.946H172.294V210.971V210.968ZM170.868 212.05H171.604V207.866H170.868V212.051V212.05ZM169.464 214.075H170.2V205.603H169.464V214.076L169.464 214.075ZM168.037 212.78H168.774V207.064H168.037V212.782V212.78ZM166.583 211.293H167.32V208.624H166.583V211.293Z" fill="#095FAF"/>
<path d="M205.381 209.117H206.117V210.8H205.381V209.117ZM203.93 211.293H204.666V208.624H203.93V211.293ZM202.503 212.674H203.239V207.243H202.503V212.674ZM201.146 213.74H201.883V206.227H201.146V213.738V213.74ZM199.694 211.905H200.431V208.012H199.694V211.905ZM198.219 214.851H198.956V204.9H198.217V214.851H198.219ZM196.768 216.277H197.504V203.64H196.768V216.277ZM195.341 214.326H196.077V205.591H195.341V214.326ZM193.865 211.846H194.601V208.164H193.865V211.846ZM192.438 210.968H193.174V208.946H192.438V210.971V210.968ZM191.011 212.05H191.748V207.866H191.011V212.051V212.05ZM189.607 214.075H190.344V205.603H189.607V214.076L189.607 214.075ZM188.181 212.78H188.917V207.064H188.181V212.782V212.78ZM186.727 211.293H187.463V208.624H186.727V211.293Z" fill="#095FAF"/>
<path d="M225.525 209.117H226.262V210.8H225.525V209.117ZM224.074 211.293H224.811V208.624H224.074V211.293ZM222.647 212.674H223.384V207.243H222.647V212.674ZM221.291 213.74H222.027V206.227H221.291V213.738V213.74ZM219.839 211.905H220.575V208.012H219.839V211.905ZM218.364 214.851H219.1V204.9H218.361V214.851H218.364ZM216.912 216.277H217.649V203.64H216.912V216.277ZM215.485 214.326H216.222V205.591H215.485V214.326ZM214.009 211.846H214.746V208.164H214.009V211.846ZM212.583 210.968H213.319V208.946H212.583V210.971V210.968ZM211.156 212.05H211.892V207.866H211.156V212.051V212.05ZM209.752 214.075H210.488V205.603H209.752V214.076L209.752 214.075ZM208.325 212.78H209.062V207.064H208.325V212.782V212.78ZM206.871 211.293H207.608V208.624H206.871V211.293Z" fill="#095FAF"/>
<rect x="136.082" y="247.122" width="19.8487" height="19.8487" rx="9.92434" fill="#095FAF" fill-opacity="0.1"/>
<path d="M146.428 259.428C146.428 259.507 146.397 259.583 146.341 259.638C146.285 259.694 146.209 259.726 146.13 259.726C144.625 259.726 143.393 258.533 143.393 257.046C143.393 255.559 144.625 254.366 146.13 254.366C147.363 254.366 148.413 255.166 148.752 256.272L148.992 255.867C149.032 255.799 149.097 255.75 149.174 255.73C149.25 255.711 149.332 255.722 149.4 255.762C149.468 255.803 149.517 255.868 149.537 255.945C149.556 256.021 149.545 256.102 149.505 256.17L148.858 257.264C148.818 257.331 148.754 257.38 148.678 257.4C148.603 257.42 148.523 257.41 148.455 257.372L147.335 256.74C147.301 256.721 147.271 256.695 147.247 256.665C147.223 256.634 147.205 256.599 147.194 256.561C147.184 256.523 147.181 256.484 147.185 256.445C147.19 256.406 147.202 256.369 147.222 256.335C147.241 256.301 147.267 256.271 147.297 256.246C147.328 256.222 147.363 256.205 147.401 256.194C147.439 256.183 147.478 256.181 147.517 256.185C147.556 256.19 147.593 256.202 147.627 256.221L148.212 256.551C147.984 255.643 147.143 254.962 146.131 254.962C144.941 254.962 143.988 255.901 143.988 257.046C143.988 258.19 144.941 259.13 146.13 259.13C146.209 259.13 146.285 259.161 146.341 259.217C146.397 259.273 146.428 259.349 146.428 259.428Z" fill="black"/>
<path d="M221.574 252.549C221.574 265.206 210.204 281.685 194.925 281.685C180.92 281.685 172.895 268.028 172.895 255.371C172.895 242.713 177.843 233.891 190.501 233.891C203.158 233.891 221.574 239.891 221.574 252.549Z" fill="#095FAF" fill-opacity="0.2"/>
<path d="M204.825 282.785C192.701 285.142 178.644 276.148 175.8 261.514C173.192 248.099 184.778 237.87 196.902 235.514C209.026 233.157 217.426 242.715 219.782 254.839C222.139 266.963 216.949 280.428 204.825 282.785Z" fill="#095FAF" fill-opacity="0.1"/>
<circle cx="196.713" cy="256.564" r="15.482" fill="#095FAF"/>
<path d="M201.272 256.198C201.828 256.541 201.828 257.348 201.272 257.691L195.465 261.276C194.88 261.636 194.126 261.216 194.126 260.529V253.36C194.126 252.673 194.88 252.253 195.465 252.614L201.272 256.198Z" fill="white"/>
<path d="M173.754 73.0331H151.65C150.321 73.0331 149.046 72.505 148.106 71.565C147.166 70.6249 146.637 69.3499 146.637 68.0205C146.637 66.691 147.166 65.416 148.106 64.476C149.046 63.5359 150.321 63.0078 151.65 63.0078H173.754C175.083 63.0078 176.358 63.5359 177.298 64.476C178.238 65.416 178.766 66.691 178.766 68.0205C178.766 69.3499 178.238 70.6249 177.298 71.565C176.358 72.505 175.083 73.0331 173.754 73.0331Z" fill="#095FAF"/>
<path d="M241.422 83.9713H149.372C148.646 83.9713 147.951 83.6832 147.438 83.1705C146.926 82.6577 146.637 81.9623 146.637 81.2371C146.637 80.512 146.926 79.8165 147.438 79.3037C147.951 78.791 148.646 78.5029 149.372 78.5029H241.422C242.147 78.5029 242.843 78.791 243.356 79.3037C243.868 79.8165 244.156 80.512 244.156 81.2371C244.156 81.9623 243.868 82.6577 243.356 83.1705C242.843 83.6832 242.147 83.9713 241.422 83.9713Z" fill="#E6E6E6"/>
<path d="M183.184 94.9078H149.372C148.646 94.9078 147.951 94.6197 147.438 94.107C146.926 93.5942 146.637 92.8988 146.637 92.1736C146.637 91.4485 146.926 90.753 147.438 90.2403C147.951 89.7275 148.646 89.4395 149.372 89.4395H183.184C183.91 89.4395 184.605 89.7275 185.118 90.2403C185.631 90.753 185.919 91.4485 185.919 92.1736C185.919 92.8988 185.631 93.5942 185.118 94.107C184.605 94.6197 183.91 94.9078 183.184 94.9078Z" fill="#E6E6E6"/>
</g>
<path d="M237.946 329.23C237.946 329.23 245.984 287.031 261.055 276.984C276.127 266.935 265.074 244.831 265.074 244.831C265.074 244.831 252.888 243.421 248.95 230.029C246.651 222.217 249.409 218.08 256.303 218.08C263.196 218.08 283.115 222.755 284.797 223.595C292.834 227.614 296.66 251.233 297.664 261.28C298.67 271.328 298.406 290.564 297.664 306.319C295.597 350.21 250.004 343.296 237.946 329.23Z" fill="#E4897B"/>
<path d="M241.157 336.652C240.616 334.024 240.303 331.359 240.107 328.688C239.903 326.017 239.858 323.333 239.94 320.645C240.056 317.961 240.298 315.268 240.874 312.618C241.165 311.296 241.548 309.986 242.08 308.729C242.625 307.49 243.324 306.256 244.374 305.4C243.559 306.47 243.085 307.703 242.732 308.961C242.374 310.219 242.15 311.514 241.959 312.813C241.618 315.419 241.439 318.054 241.351 320.698C241.146 325.988 241.232 331.296 241.157 336.652Z" fill="#606060"/>
<path d="M268.252 219.919C270.2 220.093 272.114 220.451 274.007 220.889C275.904 221.321 277.771 221.868 279.618 222.491C281.454 223.141 283.276 223.859 285.013 224.79C285.883 225.248 286.729 225.765 287.519 226.369C288.284 226.978 289.082 227.699 289.393 228.651C288.807 227.865 287.984 227.388 287.144 226.951C286.307 226.511 285.427 226.146 284.546 225.787C282.775 225.087 280.973 224.44 279.157 223.824L273.702 221.942C271.881 221.311 270.06 220.66 268.252 219.919Z" fill="#606060"/>
<path d="M248.12 224.605C251.174 225.532 254.128 226.676 257.07 227.85C259.995 229.061 262.904 230.306 265.764 231.66L264.746 231.932C265.973 230.27 267.249 228.644 268.557 227.04C269.877 225.446 271.22 223.868 272.677 222.373C271.716 224.227 270.64 225.997 269.542 227.752C268.431 229.497 267.288 231.22 266.097 232.907L265.712 233.451L265.078 233.179C262.172 231.927 259.313 230.569 256.472 229.174C253.646 227.742 250.834 226.282 248.12 224.605Z" fill="#606060"/>
<path d="M93.1356 221.497C93.1356 221.497 93.9114 226.922 85.387 233.896C76.8626 240.87 79.1878 236.995 76.8626 240.87" stroke="#606060" stroke-width="1.51826" stroke-miterlimit="10"/>
<path d="M80.4782 389.138L93.7645 336.758C93.7645 336.758 135.24 306.48 138.339 296.148C141.439 285.816 155.903 264.118 155.903 258.951C155.903 253.785 162.103 227.954 155.903 224.855C149.704 221.755 137.306 239.321 137.306 239.321C137.306 239.321 148.671 203.158 151.771 193.859C154.872 184.559 168.011 163.963 152.805 160.795C140.406 158.212 123.874 200.058 123.874 200.058C123.874 200.058 112.509 240.354 110.442 232.088C108.377 223.823 113.026 209.873 108.893 205.741C104.76 201.607 92.361 200.058 89.2622 204.191C86.1626 208.324 82.546 219.689 82.546 219.689C82.546 219.689 72.2134 213.49 67.0474 220.722C61.8815 227.955 59.8151 235.188 59.8151 235.188C59.8151 235.188 52.5828 228.472 46.8998 234.672C36.521 245.994 36.051 254.82 33.9853 265.151C31.9189 275.484 32.3758 326.118 32.3758 326.118L0 383.051L80.4782 389.138Z" fill="#E4897B"/>
<path d="M128.006 283.749C128.328 279.588 128.845 275.446 129.509 271.33C130.157 267.21 130.961 263.116 131.852 259.04C132.787 254.973 133.816 250.926 135.032 246.931C136.255 242.939 137.678 239.002 139.372 235.187C138.232 239.203 137.2 243.224 136.174 247.246C135.197 251.282 134.237 255.319 133.332 259.371C132.417 263.421 131.553 267.484 130.67 271.546C129.81 275.614 128.908 279.676 128.006 283.749Z" fill="#606060"/>
<path d="M82.5456 219.689C82.6241 221.25 82.5097 222.793 82.3139 224.323C82.1233 225.855 81.8131 227.369 81.4252 228.87C81.0072 230.361 80.5255 231.849 79.8002 233.258C79.4431 233.962 79.0252 234.649 78.4884 235.265C78.2127 235.564 77.9098 235.856 77.5395 236.061C77.1714 236.264 76.7212 236.358 76.3465 236.22C77.1465 236.125 77.5425 235.459 77.8798 234.835C78.2193 234.196 78.4657 233.495 78.7091 232.795C78.935 232.087 79.1726 231.379 79.3617 230.652C79.5737 229.933 79.776 229.207 79.9601 228.475L81.1575 224.087C81.5682 222.619 82.003 221.153 82.5456 219.689Z" fill="#606060"/>
<path d="M59.8141 235.187C59.6117 236.077 59.2466 236.876 58.8345 237.645C58.4136 238.408 57.923 239.129 57.3613 239.801C56.7996 240.472 56.169 241.098 55.4306 241.622C55.0625 241.884 54.6577 242.111 54.2258 242.288C53.7939 242.445 53.285 242.575 52.8392 242.42C53.2549 242.231 53.5395 241.96 53.8218 241.662C54.107 241.375 54.3615 241.053 54.6247 240.741L56.1969 238.827C56.7329 238.189 57.285 237.557 57.8731 236.942C58.4708 236.332 59.0831 235.729 59.8141 235.187Z" fill="#606060"/>
<path d="M154.526 228.299C154.594 229.334 154.594 230.359 154.552 231.378C154.514 232.398 154.447 233.413 154.345 234.424C154.157 236.447 153.866 238.455 153.47 240.448L153.15 239.777C153.588 240.068 153.96 240.376 154.334 240.712C154.709 241.04 155.062 241.397 155.38 241.787C155.706 242.166 155.996 242.585 156.223 243.04C156.447 243.492 156.609 243.993 156.593 244.487C156.404 244.033 156.109 243.67 155.795 243.336C155.484 242.999 155.124 242.708 154.762 242.425C154.394 242.147 154.016 241.883 153.63 241.631C153.244 241.388 152.835 241.142 152.458 240.93L152.098 240.727L152.139 240.258C152.316 238.234 152.599 236.224 152.986 234.229C153.17 233.231 153.39 232.236 153.64 231.248C153.885 230.258 154.171 229.274 154.526 228.299Z" fill="#606060"/>
<path d="M159.349 166.306C159.05 167.128 158.707 167.926 158.357 168.718C158 169.506 157.642 170.295 157.254 171.065C156.498 172.618 155.678 174.134 154.829 175.634L154.283 176.602L153.565 175.684C153.024 174.991 152.359 174.25 151.651 173.633C150.94 173.001 150.175 172.43 149.355 171.944C148.544 171.442 147.667 171.043 146.746 170.74C145.83 170.394 144.857 170.263 143.849 170.093C144.84 169.9 145.888 169.819 146.92 169.974C147.442 170.02 147.944 170.169 148.458 170.285C148.952 170.456 149.455 170.618 149.93 170.847C150.885 171.29 151.788 171.852 152.602 172.52C153.41 173.21 154.151 173.915 154.799 174.835L153.534 174.885C154.408 173.401 155.311 171.932 156.277 170.501C156.748 169.778 157.253 169.075 157.757 168.37C158.268 167.672 158.786 166.977 159.349 166.306Z" fill="#606060"/>
<defs>
<clipPath id="clip0_133_4199">
<rect width="360" height="319.895" fill="white" transform="translate(11.4221)"/>
</clipPath>
</defs>
</svg>
