<svg width="300" height="300" viewBox="0 0 300 300" fill="none" xmlns="http://www.w3.org/2000/svg">
<path d="M170.155 11.4486C170.155 11.4486 120.247 5.1012 80.517 41.2506C40.7874 77.4 29.2224 134.455 18.6348 180.447C8.04722 226.439 28.6506 266.366 67.5768 278.118C106.503 289.87 123.871 256.212 172.248 244.187C220.625 232.162 235.238 236.26 269.624 199.933C304.01 163.606 297.121 97.0644 254.755 55.9716C212.389 14.8788 170.155 11.4486 170.155 11.4486Z" fill="#26B0FF"/>
<path opacity="0.7" d="M170.155 11.4486C170.155 11.4486 120.247 5.1012 80.517 41.2506C40.7874 77.4 29.2224 134.455 18.6348 180.447C8.04722 226.439 28.6506 266.366 67.5768 278.118C106.503 289.87 123.871 256.212 172.248 244.187C220.625 232.162 235.238 236.26 269.624 199.933C304.01 163.606 297.121 97.0644 254.755 55.9716C212.389 14.8788 170.155 11.4486 170.155 11.4486Z" fill="white"/>
<path d="M15.1314 124.369H288" stroke="#263238" stroke-miterlimit="10" stroke-linecap="round" stroke-linejoin="round"/>
<path d="M29.2512 124.384C29.2512 124.384 67.794 99.8364 73.428 99.8364C79.062 99.8364 115.33 124.122 115.33 124.122C115.33 124.122 190.682 95.6106 197.372 95.9628C204.062 96.315 222.02 105.47 223.076 105.822C224.132 106.174 238.921 101.949 243.499 103.709C248.076 105.47 279.5 124.4 279.5 124.4L29.2512 124.384Z" stroke="#263238" stroke-miterlimit="10" stroke-linecap="round" stroke-linejoin="round"/>
<path d="M103.682 124.381C99.6048 121.63 92.0628 116.326 91.2 114.6C90 112.2 86.4 114.6 82.2 113.4C78 112.2 73.428 99.8364 73.428 99.8364C67.794 99.8364 29.2512 124.384 29.2512 124.384L103.682 124.381Z" stroke="#263238" stroke-miterlimit="10"/>
<path d="M201.245 108.775C196.746 105.277 194.247 102.527 194.247 102.527L196.326 96.0468C185.125 97.7136 115.33 124.122 115.33 124.122C115.33 124.122 115.254 124.072 115.115 123.979L114.469 124.225L279.5 124.4C279.5 124.4 279.445 124.367 279.349 124.309C274.398 123.329 267.365 121.932 266.723 121.771C265.724 121.522 256.976 120.521 256.976 120.521C256.976 120.521 248.23 117.772 246.48 116.773C244.73 115.773 238.483 109.525 239.233 108.275C239.983 107.026 242.482 103.527 242.482 103.527L241.844 103.353C236.103 102.749 224.028 106.139 223.077 105.822L212.742 109.025C212.741 109.025 205.743 112.274 201.245 108.775Z" stroke="#263238" stroke-miterlimit="10"/>
<path d="M291.998 209.779L153.517 124.369L8.35858 213.812" stroke="#263238" stroke-miterlimit="10" stroke-linecap="round" stroke-linejoin="round"/>
<path d="M93.261 151.904L29.5914 188.206" stroke="#263238" stroke-miterlimit="10" stroke-linecap="round" stroke-linejoin="round"/>
<path d="M45.7884 173.686L13.395 190.999" stroke="#263238" stroke-miterlimit="10" stroke-linecap="round" stroke-linejoin="round"/>
<path d="M207.196 150.228L238.472 167.542" stroke="#263238" stroke-miterlimit="10" stroke-linecap="round" stroke-linejoin="round"/>
<path d="M236.238 161.957L271.423 180.388" stroke="#263238" stroke-miterlimit="10" stroke-linecap="round" stroke-linejoin="round"/>
<path d="M251.584 279.6H289.982L240.466 233.177H247.101L211.822 214.102L210.885 233.177H217.521L251.584 279.6Z" fill="#26B0FF"/>
<path d="M9.11823 279.6H47.5164L81.579 233.177H88.215L87.2784 214.102L51.999 233.177H58.635L9.11823 279.6Z" fill="#26B0FF"/>
<path d="M115.291 279.6H181.409L165.91 213.481H176.067L148.35 190.2L120.633 213.481H130.79L115.291 279.6Z" fill="#26B0FF"/>
<path d="M264.604 72.726C262.292 71.4648 261.241 72.516 260.4 71.4648C259.559 70.4142 262.712 67.6818 256.407 64.9494C256.407 64.9494 255.987 59.0652 247.37 58.8546C238.753 58.6446 241.065 64.7394 238.753 66.2106C236.441 67.6818 235.811 65.37 233.499 66.8412C231.187 68.3124 232.238 71.2548 230.347 71.6754C228.455 72.0954 225.933 69.7842 223.621 71.2548C221.309 72.726 221.309 73.9866 220.259 73.9866C219.208 73.9866 217.106 73.146 215.845 73.9866C214.584 74.8272 213.113 75.8784 213.113 75.8784H266.285C266.285 75.8784 266.915 73.9872 264.604 72.726Z" stroke="#263238" stroke-miterlimit="10" stroke-linecap="round" stroke-linejoin="round"/>
<path d="M233.149 71.8626C232.899 72.0066 232.592 72.1536 232.211 72.306" stroke="#263238" stroke-miterlimit="10" stroke-linecap="round" stroke-linejoin="round"/>
<path d="M244.524 62.0448C244.524 62.0448 242.857 62.6862 242.472 64.6098C242.087 66.5334 241.189 67.8162 240.163 67.9446C239.137 68.073 235.289 67.6884 234.648 69.099C234.423 69.5946 234.371 70.011 234.289 70.3872" stroke="#263238" stroke-miterlimit="10" stroke-linecap="round" stroke-linejoin="round"/>
<path d="M227.824 71.4H231.514" stroke="#263238" stroke-miterlimit="10" stroke-linecap="round" stroke-linejoin="round"/>
<path d="M260.4 71.4H285.252C285.252 71.4 287.249 65.4072 279.925 61.4118C272.6 57.417 269.272 60.7458 266.608 57.417C263.944 54.0876 273.932 45.4308 253.956 36.774C253.956 36.774 252.625 18.1302 225.323 17.4642C198.023 16.7982 205.347 36.1086 198.023 40.77C190.698 45.4314 188.701 38.1066 181.376 42.7674C174.05 47.4288 177.38 56.751 171.388 58.083C165.395 59.4144 157.405 52.0902 150.079 56.751C142.755 61.4118 142.755 65.4072 139.426 65.4072C136.096 65.4072 129.437 62.7438 125.442 65.4072C121.447 68.0706 116.786 71.4 116.786 71.4H223.621" stroke="#263238" stroke-miterlimit="10" stroke-linecap="round" stroke-linejoin="round"/>
<path d="M180.267 58.6764C179.477 59.133 178.502 59.598 177.295 60.081" stroke="#263238" stroke-miterlimit="10" stroke-linecap="round" stroke-linejoin="round"/>
<path d="M183.878 54.003C184.14 52.8108 184.302 51.4914 185.016 49.9212C187.048 45.4512 199.239 46.6704 202.49 46.2642C205.741 45.858 208.585 41.7942 209.804 35.6982C211.024 29.6028 216.307 27.5706 216.307 27.5706" stroke="#263238" stroke-miterlimit="10" stroke-linecap="round" stroke-linejoin="round"/>
<path d="M62.9844 96.0486C61.5102 95.2446 60.84 95.9148 60.3042 95.2446C59.7684 94.5744 61.7784 92.832 57.7578 91.0902C57.7578 91.0902 57.4896 87.3378 51.9954 87.204C46.5012 87.0702 47.9748 90.9564 46.5012 91.8942C45.027 92.832 44.625 91.3584 43.1508 92.2962C41.6766 93.2346 42.3468 95.1108 41.1408 95.3784C39.9348 95.6466 38.3268 94.1724 36.8526 95.1102C35.3784 96.048 35.3784 96.8526 34.7082 96.8526C34.038 96.8526 32.6982 96.3168 31.8936 96.8526C31.0896 97.3884 30.1518 98.0586 30.1518 98.0586H64.0566C64.0566 98.0586 64.4586 96.8526 62.9844 96.0486Z" stroke="#263238" stroke-miterlimit="10" stroke-linecap="round" stroke-linejoin="round"/>
<path d="M42.9276 95.4978C42.7686 95.5896 42.5724 95.6832 42.3294 95.7804" stroke="#263238" stroke-miterlimit="10" stroke-linecap="round" stroke-linejoin="round"/>
<path d="M50.1804 89.238C50.1804 89.238 49.1172 89.6472 48.8718 90.8736C48.627 92.1006 48.054 92.9184 47.4 93C46.746 93.0816 44.292 92.8362 43.8834 93.7362C43.74 94.0524 43.707 94.3176 43.6542 94.5576" stroke="#263238" stroke-miterlimit="10" stroke-linecap="round" stroke-linejoin="round"/>
<path d="M140.826 63.6786L142.347 72.2982L153.604 71.994L155.53 63.4758L140.826 63.6786Z" fill="white" stroke="#263238" stroke-miterlimit="10" stroke-linecap="round" stroke-linejoin="round"/>
<path d="M138.392 57.594C138.392 57.594 136.567 56.58 136.567 59.4192C136.567 62.2584 139.305 64.0842 140.116 64.0842C140.927 64.0842 141.029 63.3744 140.826 62.4618C140.623 61.5486 138.392 57.594 138.392 57.594Z" fill="white" stroke="#263238" stroke-miterlimit="10" stroke-linecap="round" stroke-linejoin="round"/>
<path d="M156.539 57.5754C156.539 57.5754 158.265 56.4006 158.522 59.2284C158.778 62.0562 156.216 64.1214 155.408 64.1946C154.6 64.2678 154.435 63.57 154.555 62.643C154.675 61.7154 156.539 57.5754 156.539 57.5754Z" fill="white" stroke="#263238" stroke-miterlimit="10" stroke-linecap="round" stroke-linejoin="round"/>
<path d="M140.065 46.47C140.065 46.47 137.243 50.1732 137.243 53.3478C137.243 56.5218 139.183 60.9306 140.417 63.3996C141.652 65.8686 143.239 68.6898 144.121 68.8662C145.003 69.0426 151.175 69.0426 152.233 68.337C153.29 67.6314 155.054 65.868 155.759 62.1648C156.465 58.4616 157.523 52.9944 157.523 52.9944C157.523 52.9944 161.402 52.4652 161.932 49.9962C162.461 47.5272 158.933 46.1166 157.876 44.5296C156.818 42.9426 159.815 41.532 156.818 39.5916C153.82 37.6518 151.351 39.0624 149.235 39.768C147.119 40.4736 147.295 37.4754 144.826 38.7102C142.357 39.9444 142.534 41.8842 142.534 41.8842C142.534 41.8842 140.77 41.7078 140.77 40.8258C140.77 39.9444 139.007 39.9444 138.478 42.7656C137.949 45.588 140.065 46.47 140.065 46.47Z" fill="#263238" stroke="#263238" stroke-miterlimit="10" stroke-linecap="round" stroke-linejoin="round"/>
<path d="M155.429 70.1688C155.429 70.1688 147.62 70.1688 144.274 70.473C140.927 70.7772 139.71 74.631 139.71 74.631C139.71 74.631 145.693 73.617 150.358 73.4142C155.023 73.2114 157.964 73.3128 157.964 73.3128L155.429 70.1688Z" fill="white" stroke="#263238" stroke-miterlimit="10" stroke-linecap="round" stroke-linejoin="round"/>
<path d="M177.643 77.5392C177.643 77.5392 187.68 117.187 187.513 118.525C187.345 119.864 169.111 125.719 169.111 125.719L167.27 119.362L175.133 113.674L171.285 102.967C171.285 102.967 176.137 80.049 177.643 77.5392Z" fill="#26B0FF" stroke="#263238" stroke-miterlimit="10" stroke-linecap="round" stroke-linejoin="round"/>
<path d="M186.589 118.126C186.64 117.719 185.242 111.073 184.37 108.221L171.967 99.807C171.547 101.733 172.008 102.515 172.008 102.515L176.525 115.035L167.27 119.362L169.156 124.781C169.156 124.781 186.421 119.464 186.589 118.126Z" fill="#263238" stroke="#263238" stroke-miterlimit="10" stroke-linecap="round" stroke-linejoin="round"/>
<path d="M173.342 93.624L184.991 107.152C184.583 105.457 184.145 103.658 183.694 101.816L173.4 93.3696C173.381 93.4548 173.362 93.5394 173.342 93.624Z" fill="#263238" stroke="#263238" stroke-miterlimit="10" stroke-linecap="round" stroke-linejoin="round"/>
<path d="M108.232 145.886C108.232 145.886 105.662 154.153 105.439 155.829C105.215 157.505 104.321 158.287 105.103 159.739C105.885 161.192 109.572 162.755 110.354 163.091C111.136 163.426 112.7 162.085 112.7 162.085C112.7 162.085 113.594 162.755 114.264 161.303C114.934 159.851 115.158 157.17 115.158 155.941C115.158 154.712 112.924 151.472 112.7 150.467C112.477 149.461 112.365 148.009 112.365 148.009L108.232 145.886Z" fill="white" stroke="#263238" stroke-miterlimit="10" stroke-linecap="round" stroke-linejoin="round"/>
<path d="M112.253 152.03C112.253 152.03 112.365 155.605 112.142 156.052C111.919 156.499 108.343 158.51 108.343 158.51" stroke="#263238" stroke-miterlimit="10" stroke-linecap="round" stroke-linejoin="round"/>
<path d="M109.349 157.951L110.913 160.298" stroke="#263238" stroke-miterlimit="10" stroke-linecap="round" stroke-linejoin="round"/>
<path d="M112.142 156.052C112.142 156.052 113.371 155.829 113.482 156.834C113.594 157.84 113.035 161.526 112.7 162.085" stroke="#263238" stroke-miterlimit="10" stroke-linecap="round" stroke-linejoin="round"/>
<path d="M136.489 238.807C136.489 238.807 136.991 244.663 137.995 245.499C138.998 246.335 142.01 247.172 143.683 246.67C145.355 246.169 146.694 244.997 146.694 244.997L147.029 238.138C147.029 238.138 140.17 240.313 136.489 238.807Z" fill="#263238" stroke="#263238" stroke-miterlimit="10" stroke-linecap="round" stroke-linejoin="round"/>
<path d="M128.794 150.478C128.794 150.478 131.806 176.742 131.973 181.426C132.14 186.11 130.3 195.646 130.969 200.665C131.638 205.684 133.981 221.074 133.981 221.074L135.988 232.115C135.988 232.115 134.315 234.29 134.817 235.796C135.319 237.301 135.988 239.309 135.988 239.309C135.988 239.309 139.167 241.316 141.676 241.484C144.185 241.651 146.36 240.313 146.695 239.644C147.03 238.975 147.532 232.115 147.532 230.443C147.532 228.77 146.528 224.42 146.36 221.074C146.193 217.729 147.532 203.007 147.532 198.323C147.532 193.639 148.033 180.088 148.201 179.587C148.368 179.084 149.204 157.003 149.204 157.003L149.539 153.657L128.794 150.478Z" fill="#263238" stroke="#263238" stroke-miterlimit="10" stroke-linecap="round" stroke-linejoin="round"/>
<path d="M148.199 228.268C148.199 228.268 145.355 230.61 145.355 232.784C145.355 234.959 146.192 236.8 146.192 236.8L147.53 237.469C147.53 237.469 147.028 238.807 146.359 241.484C145.69 244.16 147.865 251.689 148.199 252.358C148.534 253.027 151.712 253.194 151.712 253.194C151.712 253.194 153.72 250.852 154.556 248.175C155.393 245.498 155.393 238.974 155.393 237.134C155.393 235.294 155.894 232.952 155.894 232.952C155.894 232.952 152.549 225.758 148.199 228.268Z" fill="#263238" stroke="#263238" stroke-miterlimit="10" stroke-linecap="round" stroke-linejoin="round"/>
<path d="M150.04 231.112C147.698 229.271 145.858 231.614 145.858 231.614L145.532 231.809C145.424 232.132 145.356 232.46 145.356 232.784C145.356 234.959 146.192 236.8 146.192 236.8L147.531 237.469C147.531 237.469 147.029 238.807 146.36 241.484C145.691 244.16 147.865 251.689 148.2 252.358C148.535 253.027 151.713 253.194 151.713 253.194C151.713 253.194 152.884 251.825 153.81 249.986C154.242 246.945 154.242 243.426 153.386 240.145C152.382 236.297 152.382 232.952 150.04 231.112Z" fill="#636363" stroke="#263238" stroke-miterlimit="10" stroke-linecap="round" stroke-linejoin="round"/>
<path d="M148.702 153.824L155.895 189.289C155.895 189.289 151.713 200.832 151.378 205.684C151.043 210.535 148.869 224.086 148.702 225.424C148.534 226.762 148.199 228.268 148.199 228.268C148.199 228.268 151.545 227.933 153.218 229.773C154.891 231.613 156.731 235.963 156.731 235.963C156.731 235.963 161.583 222.747 163.256 219.067C164.929 215.386 170.282 200.832 170.449 195.814C170.617 190.795 172.122 163.694 172.122 160.013C172.122 156.333 172.122 151.649 172.122 151.649C172.122 151.649 150.374 153.991 148.702 153.824Z" fill="#26B0FF" stroke="#263238" stroke-miterlimit="10" stroke-linecap="round" stroke-linejoin="round"/>
<path d="M167.94 192.467C165.431 189.122 157.234 189.122 157.234 189.122C157.234 189.122 161.583 187.784 166.267 188.118" stroke="#263238" stroke-miterlimit="10" stroke-linecap="round" stroke-linejoin="round"/>
<path d="M148.702 153.824L151.191 166.099C153.001 164.555 162.403 156.806 172.122 153.76C172.122 152.502 172.122 151.649 172.122 151.649C172.122 151.649 150.374 153.991 148.702 153.824Z" fill="#263238" stroke="#263238" stroke-miterlimit="10" stroke-linecap="round" stroke-linejoin="round"/>
<path d="M110.486 157.547H108.251V168.496H110.486V157.547Z" fill="#263238" stroke="#263238" stroke-miterlimit="10" stroke-linecap="round" stroke-linejoin="round"/>
<path d="M113.635 166.998H105.103V202.129H113.635V166.998Z" fill="#263238" stroke="#263238" stroke-miterlimit="10" stroke-linecap="round" stroke-linejoin="round"/>
<path d="M139.711 74.6304C139.711 74.6304 139.47 74.7738 139.083 75.0042C137.582 75.8988 133.877 78.1098 133.478 78.3756C132.976 78.7104 120.597 82.8924 120.597 84.5652C120.597 86.238 117.251 106.648 117.251 106.648C117.251 106.648 111.229 119.194 110.392 122.206C109.556 125.217 106.879 147.299 106.879 147.299L114.073 150.979C114.073 150.979 120.932 135.254 123.608 127.726C126.285 120.197 128.794 108.822 128.794 108.822L130.634 120.532L122.27 149.473C122.27 149.473 134.482 154.492 142.345 155.161C150.207 155.83 161.75 154.826 165.598 153.99C169.446 153.154 177.811 151.982 177.811 151.982C177.811 151.982 175.134 141.778 173.461 136.759C171.788 131.74 170.116 120.197 170.116 120.197L169.948 119.361L177.644 77.5386L160.246 74.862L157.965 73.3116C157.964 73.3122 144.605 72.8928 139.711 74.6304Z" fill="#26B0FF" stroke="#263238" stroke-miterlimit="10" stroke-linecap="round" stroke-linejoin="round"/>
<path d="M128.682 107.657L124.612 93.9336L127.726 113.307L128.682 107.657Z" fill="#263238" stroke="#263238" stroke-miterlimit="10" stroke-linecap="round" stroke-linejoin="round"/>
<path d="M146.942 92.7426C147.351 93.2166 147.72 93.6216 148.032 93.9336" stroke="#263238" stroke-miterlimit="10" stroke-linecap="round" stroke-linejoin="round"/>
<path d="M137.66 80.5506C137.66 80.5506 142.207 86.9148 145.568 91.0872" stroke="#263238" stroke-miterlimit="10" stroke-linecap="round" stroke-linejoin="round"/>
<path d="M136.322 81.387C136.322 81.387 140.839 87.744 142.679 90.588" stroke="#263238" stroke-miterlimit="10" stroke-linecap="round" stroke-linejoin="round"/>
<path d="M169.217 121.9C169.217 121.9 162.55 136.004 159.986 139.594" stroke="#263238" stroke-miterlimit="10" stroke-linecap="round" stroke-linejoin="round"/>
<path d="M161.356 142.652C160.816 143.724 160.27 144.767 159.729 145.748" stroke="#263238" stroke-miterlimit="10" stroke-linecap="round" stroke-linejoin="round"/>
<path d="M168.191 127.285C168.191 127.285 165.699 133.589 162.709 139.88" stroke="#263238" stroke-miterlimit="10" stroke-linecap="round" stroke-linejoin="round"/>
<path d="M140.364 135.112C140.753 135.601 141.14 136.071 141.522 136.517" stroke="#263238" stroke-miterlimit="10" stroke-linecap="round" stroke-linejoin="round"/>
<path d="M132.034 121.387C131.605 122.03 135.299 128.408 139.219 133.63" stroke="#263238" stroke-miterlimit="10" stroke-linecap="round" stroke-linejoin="round"/>
<path d="M132.547 125.49C132.547 125.49 136.137 133.439 137.932 136.261" stroke="#263238" stroke-miterlimit="10" stroke-linecap="round" stroke-linejoin="round"/>
<path d="M257.7 94.2C258.86 94.2 259.8 93.2598 259.8 92.1C259.8 90.9402 258.86 90 257.7 90C256.54 90 255.6 90.9402 255.6 92.1C255.6 93.2598 256.54 94.2 257.7 94.2Z" stroke="#263238" stroke-miterlimit="10" stroke-linecap="round" stroke-linejoin="round"/>
<path d="M80.7 199.5C81.8598 199.5 82.8 198.56 82.8 197.4C82.8 196.24 81.8598 195.3 80.7 195.3C79.5402 195.3 78.6 196.24 78.6 197.4C78.6 198.56 79.5402 199.5 80.7 199.5Z" stroke="#263238" stroke-miterlimit="10" stroke-linecap="round" stroke-linejoin="round"/>
<path d="M31.2 144C32.3598 144 33.3 143.06 33.3 141.9C33.3 140.74 32.3598 139.8 31.2 139.8C30.0402 139.8 29.1 140.74 29.1 141.9C29.1 143.06 30.0402 144 31.2 144Z" stroke="#263238" stroke-miterlimit="10" stroke-linecap="round" stroke-linejoin="round"/>
<path d="M80.4 82.2C81.7255 82.2 82.8 81.1255 82.8 79.8C82.8 78.4745 81.7255 77.4 80.4 77.4C79.0745 77.4 78 78.4745 78 79.8C78 81.1255 79.0745 82.2 80.4 82.2Z" stroke="#263238" stroke-miterlimit="10" stroke-linecap="round" stroke-linejoin="round"/>
<path d="M109.5 37.2C110.66 37.2 111.6 36.2598 111.6 35.1C111.6 33.9402 110.66 33 109.5 33C108.34 33 107.4 33.9402 107.4 35.1C107.4 36.2598 108.34 37.2 109.5 37.2Z" stroke="#263238" stroke-miterlimit="10" stroke-linecap="round" stroke-linejoin="round"/>
<path d="M62.8349 31.6848L67.4267 35.6532H69.6989L62.8349 29.721L55.9709 35.6532H58.2431L62.8349 31.6848Z" stroke="#263238" stroke-miterlimit="10" stroke-linecap="round" stroke-linejoin="round"/>
<path d="M62.8349 36.213L67.4267 40.1814H69.6989L62.8349 34.2492L55.9709 40.1814H58.2431L62.8349 36.213Z" stroke="#263238" stroke-miterlimit="10" stroke-linecap="round" stroke-linejoin="round"/>
<path d="M267.368 139.376L270.333 141.938H271.8L267.368 138.108L262.936 141.938H264.403L267.368 139.376Z" stroke="#263238" stroke-miterlimit="10" stroke-linecap="round" stroke-linejoin="round"/>
<path d="M267.368 142.3L270.333 144.862H271.8L267.368 141.032L262.936 144.862H264.403L267.368 142.3Z" stroke="#263238" stroke-miterlimit="10" stroke-linecap="round" stroke-linejoin="round"/>
<path d="M226.2 86.0358L230.792 90.0036H233.064L226.2 84.072L219.336 90.0036H221.608L226.2 86.0358Z" stroke="#263238" stroke-miterlimit="10" stroke-linecap="round" stroke-linejoin="round"/>
<path d="M226.2 90.564L230.792 94.5318H233.064L226.2 88.6002L219.336 94.5318H221.608L226.2 90.564Z" stroke="#263238" stroke-miterlimit="10" stroke-linecap="round" stroke-linejoin="round"/>
<path d="M258.6 214.472L263.192 218.44H265.464L258.6 212.508L251.736 218.44H254.008L258.6 214.472Z" stroke="#263238" stroke-miterlimit="10" stroke-linecap="round" stroke-linejoin="round"/>
<path d="M258.6 219L263.192 222.968H265.464L258.6 217.036L251.736 222.968H254.008L258.6 219Z" stroke="#263238" stroke-miterlimit="10" stroke-linecap="round" stroke-linejoin="round"/>
<path d="M61.068 148.57L63.966 151.074H65.4L61.068 147.331L56.736 151.074H58.17L61.068 148.57Z" stroke="#263238" stroke-miterlimit="10" stroke-linecap="round" stroke-linejoin="round"/>
<path d="M61.068 151.427L63.966 153.932H65.4L61.068 150.188L56.736 153.932H58.17L61.068 151.427Z" stroke="#263238" stroke-miterlimit="10" stroke-linecap="round" stroke-linejoin="round"/>
<path d="M41.502 220.696L44.4 223.2H45.834L41.502 219.456L37.17 223.2H38.604L41.502 220.696Z" stroke="#263238" stroke-miterlimit="10" stroke-linecap="round" stroke-linejoin="round"/>
<path d="M41.502 223.553L44.4 226.058H45.834L41.502 222.314L37.17 226.058H38.604L41.502 223.553Z" stroke="#263238" stroke-miterlimit="10" stroke-linecap="round" stroke-linejoin="round"/>
</svg>
