<svg width="360" height="320" viewBox="0 0 360 320" fill="none" xmlns="http://www.w3.org/2000/svg">
<path d="M212.871 29.3052C133.916 29.3052 1.37906 106.774 1.37906 191.594C1.37906 276.414 115.046 267.448 194 267.448C272.954 267.448 354 326.738 354 211.948C354 127.128 291.825 29.3052 212.871 29.3052Z" fill="#095FAF" fill-opacity="0.05"/>
<path d="M259.019 56.7296C259.013 56.7296 259.007 56.7315 259 56.7317V19.2859C259 15.2319 257.39 11.3438 254.523 8.47715C251.656 5.61048 247.768 4 243.714 4H126.48C122.426 4 118.538 5.61048 115.672 8.47715C112.805 11.3438 111.194 15.2319 111.194 19.2859V38.4826C110.871 38.4895 110.563 38.6229 110.336 38.8541C110.11 39.0853 109.983 39.3961 109.982 39.7198V49.2281C109.983 49.5518 110.11 49.8626 110.336 50.0938C110.563 50.325 110.871 50.4583 111.194 50.4651V60.426H111.132C110.969 60.426 110.808 60.458 110.658 60.5203C110.507 60.5827 110.371 60.674 110.255 60.7891C110.14 60.9043 110.049 61.041 109.987 61.1914C109.924 61.3418 109.892 61.5031 109.892 61.6659V80.0526C109.892 80.2154 109.924 80.3767 109.987 80.5271C110.049 80.6776 110.14 80.8142 110.255 80.9294C110.371 81.0445 110.507 81.1358 110.658 81.1982C110.808 81.2605 110.969 81.2925 111.132 81.2925H111.194V88.5951H111.175C111.012 88.5951 110.851 88.6272 110.701 88.6895C110.55 88.7518 110.413 88.8432 110.298 88.9583C110.183 89.0734 110.092 89.2101 110.03 89.3606C109.967 89.511 109.935 89.6722 109.935 89.8351V108.402C109.935 108.564 109.967 108.726 110.03 108.876C110.092 109.027 110.183 109.163 110.298 109.278C110.413 109.394 110.55 109.485 110.701 109.547C110.851 109.609 111.012 109.642 111.175 109.642H111.194V289.11C111.194 293.164 112.805 297.052 115.672 299.918C118.538 302.785 122.426 304.396 126.48 304.396H243.714C247.768 304.396 251.656 302.785 254.523 299.918C257.39 297.052 259 293.164 259 289.11V93.1416C259.007 93.1416 259.013 93.1435 259.019 93.1435C259.309 93.1435 259.596 93.0864 259.864 92.9755C260.132 92.8645 260.376 92.7019 260.581 92.4969C260.786 92.2919 260.948 92.0485 261.059 91.7806C261.17 91.5128 261.227 91.2257 261.227 90.9357V58.9376C261.227 58.352 260.995 57.7904 260.581 57.3763C260.167 56.9623 259.605 56.7296 259.019 56.7296Z" fill="#3F3D56"/>
<path d="M249.874 23.5658V284.828C249.873 287.94 248.635 290.925 246.434 293.126C244.232 295.327 241.247 296.563 238.134 296.563H132.062C128.949 296.563 125.963 295.327 123.762 293.126C121.561 290.925 120.323 287.94 120.322 284.828V23.5658C120.322 20.4523 121.559 17.4662 123.76 15.2646C125.962 13.063 128.948 11.8262 132.062 11.8262H147.934V13.8863C147.936 16.4497 148.954 18.9078 150.767 20.7204C152.58 22.533 155.038 23.5518 157.601 23.553H211.567C214.127 23.5473 216.58 22.5263 218.388 20.7141C220.196 18.9019 221.212 16.4463 221.212 13.8863V11.8476H238.134C241.244 11.8476 244.227 13.0815 246.428 15.2785C248.629 17.4755 249.868 20.456 249.874 23.5658Z" fill="white"/>
<rect x="128" y="179.811" width="114" height="36.0587" rx="10.5556" fill="#EBEDF1"/>
<path d="M176.299 187.49C176.299 187.802 176.274 188.082 176.224 188.33C176.177 188.575 176.101 188.784 175.996 188.955C175.892 189.127 175.756 189.258 175.588 189.348C175.42 189.438 175.217 189.483 174.979 189.483C174.68 189.483 174.433 189.404 174.239 189.247C174.045 189.088 173.901 188.86 173.807 188.563C173.713 188.264 173.666 187.907 173.666 187.49C173.666 187.073 173.709 186.716 173.794 186.419C173.88 186.12 174.02 185.891 174.213 185.732C174.405 185.573 174.66 185.494 174.979 185.494C175.279 185.494 175.526 185.573 175.721 185.732C175.917 185.889 176.062 186.117 176.155 186.416C176.251 186.713 176.299 187.071 176.299 187.49ZM174.295 187.49C174.295 187.816 174.316 188.089 174.358 188.309C174.402 188.528 174.475 188.692 174.576 188.802C174.676 188.909 174.811 188.963 174.979 188.963C175.146 188.963 175.281 188.909 175.381 188.802C175.482 188.694 175.555 188.53 175.599 188.311C175.645 188.092 175.668 187.818 175.668 187.49C175.668 187.164 175.646 186.892 175.601 186.673C175.557 186.454 175.485 186.29 175.384 186.18C175.283 186.069 175.148 186.013 174.979 186.013C174.809 186.013 174.674 186.069 174.573 186.18C174.474 186.29 174.402 186.454 174.358 186.673C174.316 186.892 174.295 187.164 174.295 187.49ZM179.622 187.49C179.622 187.802 179.598 188.082 179.548 188.33C179.5 188.575 179.424 188.784 179.32 188.955C179.216 189.127 179.08 189.258 178.912 189.348C178.744 189.438 178.541 189.483 178.302 189.483C178.004 189.483 177.757 189.404 177.563 189.247C177.368 189.088 177.224 188.86 177.131 188.563C177.037 188.264 176.99 187.907 176.99 187.49C176.99 187.073 177.033 186.716 177.117 186.419C177.204 186.12 177.344 185.891 177.536 185.732C177.729 185.573 177.984 185.494 178.302 185.494C178.603 185.494 178.85 185.573 179.044 185.732C179.241 185.889 179.386 186.117 179.479 186.416C179.575 186.713 179.622 187.071 179.622 187.49ZM177.618 187.49C177.618 187.816 177.64 188.089 177.682 188.309C177.726 188.528 177.799 188.692 177.899 188.802C178 188.909 178.134 188.963 178.302 188.963C178.47 188.963 178.604 188.909 178.705 188.802C178.806 188.694 178.878 188.53 178.923 188.311C178.968 188.092 178.991 187.818 178.991 187.49C178.991 187.164 178.969 186.892 178.925 186.673C178.881 186.454 178.809 186.29 178.708 186.18C178.607 186.069 178.472 186.013 178.302 186.013C178.133 186.013 177.997 186.069 177.897 186.18C177.798 186.29 177.726 186.454 177.682 186.673C177.64 186.892 177.618 187.164 177.618 187.49ZM180.433 189.101C180.433 188.956 180.47 188.855 180.545 188.796C180.621 188.736 180.712 188.706 180.82 188.706C180.928 188.706 181.02 188.736 181.096 188.796C181.174 188.855 181.213 188.956 181.213 189.101C181.213 189.243 181.174 189.345 181.096 189.409C181.02 189.47 180.928 189.501 180.82 189.501C180.712 189.501 180.621 189.47 180.545 189.409C180.47 189.345 180.433 189.243 180.433 189.101ZM180.433 186.832C180.433 186.686 180.47 186.582 180.545 186.522C180.621 186.462 180.712 186.432 180.82 186.432C180.928 186.432 181.02 186.462 181.096 186.522C181.174 186.582 181.213 186.686 181.213 186.832C181.213 186.972 181.174 187.073 181.096 187.137C181.02 187.199 180.928 187.23 180.82 187.23C180.712 187.23 180.621 187.199 180.545 187.137C180.47 187.073 180.433 186.972 180.433 186.832ZM184.653 187.49C184.653 187.802 184.628 188.082 184.579 188.33C184.531 188.575 184.455 188.784 184.351 188.955C184.246 189.127 184.11 189.258 183.942 189.348C183.775 189.438 183.571 189.483 183.333 189.483C183.034 189.483 182.788 189.404 182.593 189.247C182.399 189.088 182.255 188.86 182.161 188.563C182.068 188.264 182.021 187.907 182.021 187.49C182.021 187.073 182.063 186.716 182.148 186.419C182.235 186.12 182.374 185.891 182.567 185.732C182.759 185.573 183.015 185.494 183.333 185.494C183.633 185.494 183.881 185.573 184.075 185.732C184.271 185.889 184.416 186.117 184.51 186.416C184.605 186.713 184.653 187.071 184.653 187.49ZM182.649 187.49C182.649 187.816 182.67 188.089 182.713 188.309C182.757 188.528 182.829 188.692 182.93 188.802C183.031 188.909 183.165 188.963 183.333 188.963C183.501 188.963 183.635 188.909 183.736 188.802C183.836 188.694 183.909 188.53 183.953 188.311C183.999 188.092 184.022 187.818 184.022 187.49C184.022 187.164 184 186.892 183.956 186.673C183.912 186.454 183.839 186.29 183.738 186.18C183.638 186.069 183.502 186.013 183.333 186.013C183.163 186.013 183.028 186.069 182.927 186.18C182.828 186.29 182.757 186.454 182.713 186.673C182.67 186.892 182.649 187.164 182.649 187.49ZM186.67 187.007C186.919 187.007 187.138 187.052 187.327 187.142C187.518 187.231 187.666 187.361 187.772 187.535C187.879 187.706 187.932 187.916 187.932 188.165C187.932 188.438 187.874 188.673 187.759 188.871C187.644 189.067 187.476 189.218 187.253 189.324C187.03 189.43 186.759 189.483 186.439 189.483C186.236 189.483 186.046 189.465 185.869 189.43C185.694 189.394 185.543 189.341 185.416 189.271V188.709C185.549 188.783 185.708 188.844 185.893 188.892C186.079 188.938 186.256 188.961 186.426 188.961C186.606 188.961 186.761 188.934 186.89 188.881C187.019 188.828 187.118 188.747 187.187 188.637C187.257 188.528 187.293 188.389 187.293 188.221C187.293 187.998 187.221 187.827 187.078 187.707C186.937 187.585 186.715 187.524 186.413 187.524C186.307 187.524 186.194 187.534 186.073 187.553C185.955 187.571 185.856 187.59 185.777 187.611L185.504 187.45L185.649 185.555H187.664V186.103H186.198L186.113 187.068C186.177 187.054 186.253 187.041 186.341 187.028C186.429 187.014 186.539 187.007 186.67 187.007ZM188.787 189.101C188.787 188.956 188.825 188.855 188.899 188.796C188.975 188.736 189.067 188.706 189.174 188.706C189.282 188.706 189.374 188.736 189.45 188.796C189.528 188.855 189.567 188.956 189.567 189.101C189.567 189.243 189.528 189.345 189.45 189.409C189.374 189.47 189.282 189.501 189.174 189.501C189.067 189.501 188.975 189.47 188.899 189.409C188.825 189.345 188.787 189.243 188.787 189.101ZM193.002 187.206C193.002 187.436 192.985 187.661 192.951 187.882C192.92 188.103 192.863 188.309 192.782 188.502C192.702 188.695 192.592 188.865 192.45 189.014C192.311 189.16 192.134 189.275 191.92 189.358C191.707 189.441 191.449 189.483 191.146 189.483C191.07 189.483 190.982 189.478 190.881 189.47C190.782 189.463 190.701 189.452 190.637 189.438V188.918C190.705 188.938 190.78 188.954 190.863 188.966C190.948 188.977 191.032 188.982 191.115 188.982C191.441 188.982 191.696 188.921 191.878 188.799C192.062 188.677 192.192 188.509 192.268 188.295C192.345 188.082 192.39 187.839 192.4 187.566H192.368C192.317 187.651 192.253 187.729 192.175 187.8C192.097 187.869 192.001 187.924 191.886 187.967C191.771 188.007 191.631 188.028 191.467 188.028C191.244 188.028 191.05 187.981 190.884 187.887C190.72 187.793 190.591 187.657 190.5 187.479C190.409 187.299 190.364 187.082 190.364 186.83C190.364 186.556 190.417 186.32 190.521 186.122C190.625 185.924 190.773 185.772 190.963 185.666C191.154 185.558 191.379 185.504 191.637 185.504C191.831 185.504 192.01 185.54 192.175 185.61C192.341 185.679 192.486 185.785 192.61 185.928C192.733 186.07 192.83 186.247 192.898 186.461C192.967 186.673 193.002 186.921 193.002 187.206ZM191.645 186.018C191.449 186.018 191.289 186.085 191.165 186.217C191.041 186.348 190.979 186.549 190.979 186.822C190.979 187.042 191.032 187.217 191.138 187.346C191.244 187.475 191.407 187.54 191.626 187.54C191.778 187.54 191.909 187.509 192.018 187.447C192.13 187.384 192.215 187.303 192.276 187.206C192.337 187.109 192.368 187.01 192.368 186.909C192.368 186.805 192.353 186.701 192.323 186.596C192.295 186.492 192.251 186.397 192.191 186.31C192.131 186.223 192.055 186.154 191.963 186.101C191.873 186.046 191.767 186.018 191.645 186.018ZM196.331 187.49C196.331 187.802 196.306 188.082 196.257 188.33C196.209 188.575 196.133 188.784 196.029 188.955C195.924 189.127 195.788 189.258 195.62 189.348C195.453 189.438 195.249 189.483 195.011 189.483C194.712 189.483 194.466 189.404 194.271 189.247C194.077 189.088 193.933 188.86 193.839 188.563C193.746 188.264 193.699 187.907 193.699 187.49C193.699 187.073 193.741 186.716 193.826 186.419C193.913 186.12 194.052 185.891 194.245 185.732C194.437 185.573 194.693 185.494 195.011 185.494C195.311 185.494 195.559 185.573 195.753 185.732C195.949 185.889 196.094 186.117 196.188 186.416C196.283 186.713 196.331 187.071 196.331 187.49ZM194.327 187.49C194.327 187.816 194.348 188.089 194.391 188.309C194.435 188.528 194.507 188.692 194.608 188.802C194.709 188.909 194.843 188.963 195.011 188.963C195.179 188.963 195.313 188.909 195.414 188.802C195.514 188.694 195.587 188.53 195.631 188.311C195.677 188.092 195.7 187.818 195.7 187.49C195.7 187.164 195.678 186.892 195.634 186.673C195.59 186.454 195.517 186.29 195.416 186.18C195.316 186.069 195.18 186.013 195.011 186.013C194.841 186.013 194.706 186.069 194.605 186.18C194.506 186.29 194.435 186.454 194.391 186.673C194.348 186.892 194.327 187.164 194.327 187.49Z" fill="#667085"/>
<path d="M173.815 201.221H174.552V202.904H173.815V201.221ZM172.364 203.397H173.1V200.728H172.364V203.397ZM170.937 204.778H171.674V199.347H170.937V204.778ZM169.581 205.843H170.317V198.331H169.581V205.842V205.843ZM168.129 204.009H168.865V200.116H168.129V204.009ZM166.654 206.955H167.39V197.004H166.651V206.955H166.654ZM165.202 208.381H165.938V195.744H165.202V208.381ZM163.775 206.43H164.512V197.695H163.775V206.43V206.43ZM162.299 203.949H163.035V200.267H162.299V203.949ZM160.872 203.072H161.609V201.05H160.872V203.075V203.072ZM159.445 204.153H160.182V199.97H159.445V204.155V204.153ZM158.042 206.178H158.778V197.707H158.042V206.18L158.042 206.178ZM156.615 204.884H157.351V199.168H156.615V204.886V204.884ZM155.161 203.397H155.897V200.728H155.161V203.397Z" fill="#095FAF"/>
<path d="M193.959 201.221H194.695V202.904H193.959V201.221ZM192.508 203.397H193.244V200.728H192.508V203.397ZM191.081 204.778H191.817V199.347H191.081V204.778ZM189.724 205.843H190.461V198.331H189.724V205.842V205.843ZM188.272 204.009H189.009V200.116H188.272V204.009ZM186.797 206.954H187.534V197.004H186.795V206.954H186.797ZM185.345 208.381H186.082V195.744H185.345V208.381ZM183.919 206.43H184.655V197.695H183.919V206.43ZM182.443 203.949H183.179V200.267H182.443V203.949ZM181.016 203.072H181.752V201.05H181.016V203.075V203.072ZM179.589 204.153H180.325V199.97H179.589V204.155V204.153ZM178.185 206.178H178.922V197.707H178.185V206.18L178.185 206.178ZM176.758 204.884H177.495V199.168H176.758V204.886V204.884ZM175.305 203.397H176.041V200.728H175.305V203.397Z" fill="#095FAF"/>
<path d="M214.103 201.221H214.84V202.904H214.103V201.221ZM212.652 203.397H213.388V200.728H212.652V203.397ZM211.225 204.778H211.962V199.347H211.225V204.778ZM209.869 205.843H210.605V198.331H209.869V205.842V205.843ZM208.417 204.009H209.153V200.116H208.417V204.009ZM206.942 206.954H207.678V197.004H206.939V206.954H206.942ZM205.49 208.381H206.226V195.744H205.49V208.381ZM204.063 206.43H204.8V197.695H204.063V206.43ZM202.587 203.949H203.324V200.267H202.587V203.949ZM201.16 203.072H201.897V201.05H201.16V203.075V203.072ZM199.734 204.153H200.47V199.97H199.734V204.155V204.153ZM198.33 206.178H199.066V197.707H198.33V206.18L198.33 206.178ZM196.903 204.884H197.639V199.168H196.903V204.886V204.884ZM195.449 203.397H196.186V200.728H195.449V203.397Z" fill="#095FAF"/>
<path d="M209.638 244.316C209.638 256.715 198.501 272.858 183.533 272.858C169.812 272.858 161.951 259.48 161.951 247.08C161.951 234.68 166.799 226.038 179.198 226.038C191.598 226.038 209.638 231.916 209.638 244.316Z" fill="#095FAF" fill-opacity="0.2"/>
<path d="M193.231 273.935C181.355 276.244 167.584 267.434 164.797 253.097C162.243 239.955 173.593 229.935 185.47 227.626C197.346 225.318 205.575 234.682 207.884 246.558C210.193 258.435 205.108 271.627 193.231 273.935Z" fill="#095FAF" fill-opacity="0.1"/>
<circle cx="185.284" cy="248.249" r="15.1667" fill="#095FAF"/>
<rect x="181.868" y="244.574" width="7" height="8.25" rx="1.41204" fill="white"/>
<path d="M173.577 281.152C173.895 281.152 174.158 281.191 174.364 281.271C174.573 281.349 174.728 281.468 174.831 281.629C174.933 281.79 174.985 281.995 174.985 282.244C174.985 282.449 174.948 282.62 174.873 282.758C174.799 282.894 174.702 283.005 174.582 283.089C174.462 283.174 174.333 283.24 174.197 283.286L175.26 285.027H174.735L173.787 283.41H172.981V285.027H172.53V281.152H173.577ZM173.551 281.541H172.981V283.028H173.596C173.912 283.028 174.144 282.964 174.293 282.835C174.443 282.706 174.518 282.516 174.518 282.265C174.518 282.002 174.439 281.815 174.28 281.706C174.122 281.596 173.879 281.541 173.551 281.541ZM176.933 282.069C177.18 282.069 177.392 282.124 177.569 282.233C177.746 282.343 177.881 282.496 177.975 282.694C178.068 282.891 178.115 283.12 178.115 283.384V283.657H176.109C176.114 283.998 176.199 284.257 176.363 284.436C176.527 284.614 176.759 284.704 177.057 284.704C177.241 284.704 177.404 284.687 177.545 284.653C177.687 284.62 177.833 284.57 177.985 284.505V284.892C177.839 284.957 177.693 285.005 177.548 285.035C177.405 285.065 177.235 285.08 177.039 285.08C176.76 285.08 176.516 285.023 176.307 284.91C176.101 284.796 175.94 284.628 175.825 284.407C175.71 284.186 175.653 283.915 175.653 283.596C175.653 283.283 175.705 283.012 175.809 282.785C175.915 282.555 176.063 282.378 176.254 282.254C176.447 282.131 176.673 282.069 176.933 282.069ZM176.928 282.429C176.693 282.429 176.505 282.506 176.366 282.66C176.226 282.814 176.143 283.028 176.116 283.304H177.654C177.652 283.131 177.625 282.979 177.572 282.848C177.52 282.716 177.442 282.613 177.336 282.541C177.23 282.466 177.094 282.429 176.928 282.429ZM180.026 285.08C179.765 285.08 179.534 285.026 179.334 284.918C179.135 284.811 178.979 284.646 178.868 284.425C178.757 284.204 178.701 283.926 178.701 283.59C178.701 283.239 178.759 282.952 178.876 282.729C178.994 282.504 179.157 282.338 179.364 282.231C179.57 282.123 179.805 282.069 180.069 282.069C180.214 282.069 180.353 282.084 180.487 282.114C180.624 282.142 180.735 282.178 180.821 282.223L180.689 282.591C180.601 282.556 180.498 282.524 180.381 282.496C180.267 282.467 180.159 282.453 180.058 282.453C179.857 282.453 179.689 282.496 179.554 282.583C179.422 282.67 179.322 282.797 179.255 282.965C179.189 283.133 179.157 283.339 179.157 283.585C179.157 283.82 179.189 284.021 179.252 284.187C179.318 284.353 179.414 284.48 179.541 284.568C179.67 284.655 179.831 284.698 180.024 284.698C180.177 284.698 180.316 284.682 180.44 284.651C180.563 284.617 180.676 284.578 180.776 284.534V284.926C180.679 284.976 180.57 285.014 180.45 285.04C180.332 285.067 180.191 285.08 180.026 285.08ZM183.97 283.569C183.97 283.808 183.939 284.021 183.878 284.208C183.816 284.395 183.727 284.553 183.61 284.682C183.493 284.811 183.352 284.91 183.186 284.979C183.021 285.046 182.835 285.08 182.627 285.08C182.432 285.08 182.254 285.046 182.091 284.979C181.93 284.91 181.791 284.811 181.672 284.682C181.556 284.553 181.465 284.395 181.399 284.208C181.336 284.021 181.304 283.808 181.304 283.569C181.304 283.251 181.358 282.981 181.466 282.758C181.573 282.534 181.727 282.363 181.927 282.246C182.128 282.128 182.368 282.069 182.645 282.069C182.91 282.069 183.142 282.128 183.34 282.246C183.539 282.365 183.694 282.536 183.803 282.761C183.915 282.983 183.97 283.253 183.97 283.569ZM181.76 283.569C181.76 283.802 181.791 284.005 181.853 284.176C181.914 284.348 182.01 284.48 182.139 284.574C182.268 284.667 182.434 284.714 182.637 284.714C182.839 284.714 183.004 284.667 183.133 284.574C183.264 284.48 183.36 284.348 183.422 284.176C183.484 284.005 183.515 283.802 183.515 283.569C183.515 283.338 183.484 283.138 183.422 282.97C183.36 282.8 183.264 282.67 183.135 282.578C183.006 282.486 182.839 282.44 182.634 282.44C182.332 282.44 182.111 282.54 181.969 282.739C181.83 282.939 181.76 283.216 181.76 283.569ZM186.051 282.069C186.11 282.069 186.17 282.072 186.234 282.079C186.298 282.085 186.354 282.093 186.404 282.103L186.348 282.512C186.3 282.499 186.247 282.489 186.189 282.482C186.131 282.475 186.076 282.472 186.025 282.472C185.908 282.472 185.798 282.496 185.693 282.543C185.591 282.589 185.501 282.656 185.423 282.745C185.345 282.831 185.284 282.936 185.24 283.06C185.196 283.182 185.174 283.318 185.174 283.468V285.027H184.731V282.122H185.097L185.145 282.657H185.163C185.223 282.55 185.296 282.451 185.381 282.363C185.465 282.273 185.563 282.201 185.675 282.148C185.788 282.095 185.913 282.069 186.051 282.069ZM187.986 285.08C187.619 285.08 187.327 284.955 187.111 284.704C186.898 284.453 186.791 284.08 186.791 283.585C186.791 283.085 186.9 282.708 187.119 282.453C187.339 282.197 187.63 282.069 187.994 282.069C188.148 282.069 188.282 282.089 188.397 282.13C188.512 282.17 188.611 282.225 188.694 282.294C188.777 282.361 188.847 282.438 188.903 282.525H188.935C188.928 282.47 188.921 282.395 188.914 282.299C188.907 282.204 188.903 282.126 188.903 282.066V280.903H189.343V285.027H188.988L188.922 284.613H188.903C188.849 284.7 188.779 284.779 188.694 284.849C188.611 284.92 188.511 284.977 188.394 285.019C188.28 285.06 188.143 285.08 187.986 285.08ZM188.055 284.714C188.366 284.714 188.586 284.626 188.715 284.449C188.844 284.272 188.909 284.01 188.909 283.662V283.582C188.909 283.213 188.847 282.929 188.723 282.732C188.601 282.534 188.378 282.435 188.055 282.435C187.785 282.435 187.582 282.539 187.448 282.747C187.314 282.954 187.247 283.237 187.247 283.596C187.247 283.953 187.313 284.228 187.445 284.423C187.58 284.617 187.783 284.714 188.055 284.714ZM190.716 282.122V285.027H190.276V282.122H190.716ZM190.502 281.035C190.574 281.035 190.636 281.059 190.687 281.107C190.74 281.153 190.767 281.225 190.767 281.324C190.767 281.421 190.74 281.494 190.687 281.541C190.636 281.589 190.574 281.613 190.502 281.613C190.426 281.613 190.362 281.589 190.311 281.541C190.261 281.494 190.237 281.421 190.237 281.324C190.237 281.225 190.261 281.153 190.311 281.107C190.362 281.059 190.426 281.035 190.502 281.035ZM193.025 282.069C193.37 282.069 193.63 282.154 193.807 282.323C193.984 282.491 194.072 282.762 194.072 283.134V285.027H193.637V283.164C193.637 282.921 193.582 282.74 193.47 282.62C193.361 282.5 193.192 282.44 192.964 282.44C192.643 282.44 192.416 282.531 192.286 282.713C192.155 282.895 192.089 283.159 192.089 283.506V285.027H191.649V282.122H192.005L192.071 282.541H192.095C192.157 282.438 192.235 282.352 192.331 282.284C192.426 282.213 192.533 282.16 192.651 282.125C192.77 282.087 192.894 282.069 193.025 282.069ZM195.79 286.331C195.408 286.331 195.114 286.26 194.907 286.116C194.7 285.975 194.597 285.776 194.597 285.52C194.597 285.338 194.654 285.182 194.769 285.053C194.886 284.925 195.047 284.839 195.252 284.796C195.176 284.761 195.11 284.708 195.056 284.637C195.003 284.567 194.976 284.485 194.976 284.393C194.976 284.287 195.005 284.195 195.063 284.115C195.124 284.034 195.215 283.956 195.336 283.882C195.185 283.82 195.061 283.716 194.965 283.569C194.872 283.421 194.825 283.248 194.825 283.052C194.825 282.844 194.868 282.666 194.955 282.519C195.041 282.371 195.167 282.258 195.331 282.18C195.496 282.102 195.694 282.064 195.928 282.064C195.979 282.064 196.03 282.066 196.081 282.071C196.134 282.075 196.185 282.081 196.232 282.09C196.28 282.097 196.322 282.106 196.357 282.117H197.354V282.4L196.818 282.466C196.871 282.535 196.915 282.618 196.951 282.716C196.986 282.813 197.004 282.921 197.004 283.039C197.004 283.329 196.906 283.559 196.71 283.731C196.513 283.9 196.244 283.985 195.901 283.985C195.82 283.985 195.737 283.978 195.652 283.964C195.565 284.012 195.499 284.065 195.453 284.123C195.409 284.181 195.387 284.249 195.387 284.325C195.387 284.381 195.404 284.426 195.437 284.46C195.473 284.493 195.523 284.518 195.588 284.534C195.654 284.548 195.732 284.555 195.824 284.555H196.336C196.652 284.555 196.894 284.621 197.062 284.754C197.232 284.887 197.317 285.08 197.317 285.334C197.317 285.656 197.186 285.903 196.924 286.074C196.663 286.245 196.285 286.331 195.79 286.331ZM195.803 285.987C196.043 285.987 196.242 285.962 196.399 285.912C196.558 285.865 196.677 285.795 196.755 285.703C196.834 285.613 196.874 285.505 196.874 285.38C196.874 285.263 196.847 285.175 196.794 285.114C196.741 285.056 196.664 285.017 196.561 284.998C196.459 284.977 196.333 284.966 196.185 284.966H195.681C195.55 284.966 195.436 284.986 195.339 285.027C195.242 285.068 195.167 285.128 195.114 285.207C195.063 285.287 195.037 285.386 195.037 285.504C195.037 285.661 195.103 285.781 195.236 285.862C195.368 285.945 195.557 285.987 195.803 285.987ZM195.917 283.665C196.127 283.665 196.285 283.612 196.391 283.506C196.497 283.399 196.551 283.245 196.551 283.042C196.551 282.824 196.497 282.662 196.389 282.554C196.281 282.444 196.122 282.39 195.912 282.39C195.71 282.39 195.555 282.446 195.445 282.559C195.337 282.671 195.283 282.834 195.283 283.05C195.283 283.248 195.338 283.399 195.448 283.506C195.557 283.612 195.714 283.665 195.917 283.665Z" fill="#095FAF"/>
<path d="M162.332 73.0331H140.228C138.899 73.0331 137.624 72.505 136.683 71.565C135.743 70.6249 135.215 69.3499 135.215 68.0205C135.215 66.691 135.743 65.416 136.683 64.476C137.624 63.5359 138.899 63.0078 140.228 63.0078H162.332C163.661 63.0078 164.936 63.5359 165.876 64.476C166.816 65.416 167.344 66.691 167.344 68.0205C167.344 69.3499 166.816 70.6249 165.876 71.565C164.936 72.505 163.661 73.0331 162.332 73.0331Z" fill="#095FAF"/>
<path d="M230 83.9713H137.95C137.224 83.9713 136.529 83.6832 136.016 83.1705C135.503 82.6577 135.215 81.9623 135.215 81.2371C135.215 80.512 135.503 79.8165 136.016 79.3037C136.529 78.791 137.224 78.5029 137.95 78.5029H230C230.725 78.5029 231.421 78.791 231.933 79.3037C232.446 79.8165 232.734 80.512 232.734 81.2371C232.734 81.9623 232.446 82.6577 231.933 83.1705C231.421 83.6832 230.725 83.9713 230 83.9713Z" fill="#E6E6E6"/>
<path d="M171.762 94.9078H137.95C137.224 94.9078 136.529 94.6197 136.016 94.107C135.503 93.5942 135.215 92.8988 135.215 92.1736C135.215 91.4485 135.503 90.753 136.016 90.2403C136.529 89.7275 137.224 89.4395 137.95 89.4395H171.762C172.487 89.4395 173.183 89.7275 173.696 90.2403C174.208 90.753 174.496 91.4485 174.496 92.1736C174.496 92.8988 174.208 93.5942 173.696 94.107C173.183 94.6197 172.487 94.9078 171.762 94.9078Z" fill="#E6E6E6"/>
</svg>
