<svg width="360" height="320" viewBox="0 0 360 320" fill="none" xmlns="http://www.w3.org/2000/svg">
<path d="M144.339 283.282C223.293 283.282 358.5 207.268 358.5 122.448C358.5 37.6281 228.451 29.9538 149.497 29.9538C70.5426 29.9538 1.37915 14.9126 1.37915 129.702C1.37915 214.522 65.3843 283.282 144.339 283.282Z" fill="#095FAF" fill-opacity="0.05"/>
<path d="M259.019 56.7296C259.013 56.7296 259.007 56.7315 259 56.7317V19.2859C259 15.2319 257.39 11.3438 254.523 8.47715C251.656 5.61048 247.768 4 243.714 4H126.48C122.426 4 118.538 5.61048 115.672 8.47715C112.805 11.3438 111.194 15.2319 111.194 19.2859V38.4826C110.871 38.4895 110.563 38.6229 110.336 38.8541C110.11 39.0853 109.983 39.3961 109.982 39.7198V49.2281C109.983 49.5518 110.11 49.8626 110.336 50.0938C110.563 50.325 110.871 50.4583 111.194 50.4651V60.426H111.132C110.969 60.426 110.808 60.458 110.658 60.5203C110.507 60.5827 110.371 60.674 110.255 60.7891C110.14 60.9043 110.049 61.041 109.987 61.1914C109.924 61.3418 109.892 61.5031 109.892 61.6659V80.0526C109.892 80.2154 109.924 80.3767 109.987 80.5271C110.049 80.6776 110.14 80.8142 110.255 80.9294C110.371 81.0445 110.507 81.1358 110.658 81.1982C110.808 81.2605 110.969 81.2925 111.132 81.2925H111.194V88.5951H111.175C111.012 88.5951 110.851 88.6272 110.701 88.6895C110.55 88.7518 110.413 88.8432 110.298 88.9583C110.183 89.0734 110.092 89.2101 110.03 89.3606C109.967 89.511 109.935 89.6722 109.935 89.8351V108.402C109.935 108.564 109.967 108.726 110.03 108.876C110.092 109.027 110.183 109.163 110.298 109.278C110.413 109.394 110.55 109.485 110.701 109.547C110.851 109.609 111.012 109.642 111.175 109.642H111.194V289.11C111.194 293.164 112.805 297.052 115.672 299.918C118.538 302.785 122.426 304.396 126.48 304.396H243.714C247.768 304.396 251.656 302.785 254.523 299.918C257.39 297.052 259 293.164 259 289.11V93.1416C259.007 93.1416 259.013 93.1435 259.019 93.1435C259.309 93.1435 259.596 93.0864 259.864 92.9755C260.132 92.8645 260.376 92.7019 260.581 92.4969C260.786 92.2919 260.948 92.0485 261.059 91.7806C261.17 91.5128 261.227 91.2257 261.227 90.9357V58.9376C261.227 58.352 260.995 57.7904 260.581 57.3763C260.167 56.9623 259.605 56.7296 259.019 56.7296Z" fill="#3F3D56"/>
<path d="M249.874 23.5658V284.828C249.873 287.94 248.635 290.925 246.434 293.126C244.232 295.327 241.247 296.563 238.134 296.563H132.062C128.949 296.563 125.963 295.327 123.762 293.126C121.561 290.925 120.323 287.94 120.322 284.828V23.5658C120.322 20.4523 121.559 17.4662 123.76 15.2646C125.962 13.063 128.948 11.8262 132.062 11.8262H147.934V13.8863C147.936 16.4497 148.954 18.9078 150.767 20.7204C152.58 22.533 155.038 23.5518 157.601 23.553H211.567C214.127 23.5473 216.58 22.5263 218.388 20.7141C220.196 18.9019 221.212 16.4463 221.212 13.8863V11.8476H238.134C241.244 11.8476 244.227 13.0815 246.428 15.2785C248.629 17.4755 249.868 20.456 249.874 23.5658Z" fill="white"/>
<path d="M146.266 31.1105H133.962C133.66 31.1105 133.37 30.9905 133.156 30.7768C132.943 30.5632 132.823 30.2734 132.823 29.9713C132.823 29.6691 132.943 29.3794 133.156 29.1657C133.37 28.9521 133.66 28.832 133.962 28.832H146.266C146.568 28.832 146.858 28.9521 147.071 29.1657C147.285 29.3794 147.405 29.6691 147.405 29.9713C147.405 30.2734 147.285 30.5632 147.071 30.7768C146.858 30.9905 146.568 31.1105 146.266 31.1105Z" fill="#3F3D56"/>
<path d="M146.266 34.299H133.962C133.66 34.299 133.37 34.179 133.156 33.9653C132.943 33.7517 132.823 33.4619 132.823 33.1597C132.823 32.8576 132.943 32.5678 133.156 32.3542C133.37 32.1405 133.66 32.0205 133.962 32.0205H146.266C146.568 32.0205 146.858 32.1405 147.071 32.3542C147.285 32.5678 147.405 32.8576 147.405 33.1597C147.405 33.4619 147.285 33.7517 147.071 33.9653C146.858 34.179 146.568 34.299 146.266 34.299Z" fill="#3F3D56"/>
<path d="M146.266 37.4894H133.962C133.66 37.4894 133.37 37.3694 133.156 37.1557C132.943 36.9421 132.823 36.6523 132.823 36.3502C132.823 36.048 132.943 35.7583 133.156 35.5446C133.37 35.331 133.66 35.2109 133.962 35.2109H146.266C146.568 35.2109 146.858 35.331 147.071 35.5446C147.285 35.7583 147.405 36.048 147.405 36.3502C147.405 36.6523 147.285 36.9421 147.071 37.1557C146.858 37.3694 146.568 37.4894 146.266 37.4894Z" fill="#3F3D56"/>
<path d="M241.639 34.3225H241.224L241.065 34.1903C241.589 33.5659 241.876 32.777 241.876 31.9619C241.872 31.2914 241.67 30.637 241.294 30.0815C240.919 29.5259 240.387 29.0942 239.766 28.841C239.145 28.5877 238.463 28.5242 237.806 28.6586C237.149 28.793 236.547 29.1191 236.075 29.5958C235.604 30.0725 235.284 30.6783 235.157 31.3367C235.03 31.995 235.1 32.6763 235.36 33.2945C235.62 33.9126 236.058 34.4397 236.617 34.8093C237.177 35.1788 237.833 35.3742 238.504 35.3706C239.316 35.3648 240.102 35.0782 240.728 34.5594L240.882 34.6916V35.1108L243.498 37.7311L244.282 36.9473L241.639 34.3225ZM238.504 34.3225C238.037 34.3243 237.58 34.1876 237.191 33.9297C236.802 33.6718 236.498 33.3044 236.317 32.8737C236.137 32.4431 236.088 31.9687 236.178 31.5104C236.267 31.0522 236.49 30.6307 236.819 30.2993C237.148 29.9679 237.568 29.7415 238.025 29.6486C238.483 29.5558 238.958 29.6007 239.39 29.7777C239.822 29.9547 240.191 30.2558 240.452 30.643C240.713 31.0301 240.853 31.486 240.855 31.9528L240.855 31.9619C240.857 32.2701 240.798 32.5757 240.682 32.8611C240.565 33.1465 240.394 33.4062 240.177 33.6254C239.961 33.8446 239.703 34.019 239.419 34.1386C239.135 34.2581 238.83 34.3206 238.522 34.3224C238.516 34.3225 238.51 34.3225 238.504 34.3225Z" fill="#3F3D56"/>
<path d="M171.332 73.0331H149.228C147.899 73.0331 146.624 72.505 145.683 71.565C144.743 70.6249 144.215 69.3499 144.215 68.0205C144.215 66.691 144.743 65.416 145.683 64.476C146.624 63.5359 147.899 63.0078 149.228 63.0078H171.332C172.661 63.0078 173.936 63.5359 174.876 64.476C175.816 65.416 176.344 66.691 176.344 68.0205C176.344 69.3499 175.816 70.6249 174.876 71.565C173.936 72.505 172.661 73.0331 171.332 73.0331Z" fill="#095FAF"/>
<path d="M239 83.9713H146.95C146.224 83.9713 145.529 83.6832 145.016 83.1705C144.503 82.6577 144.215 81.9623 144.215 81.2371C144.215 80.512 144.503 79.8165 145.016 79.3037C145.529 78.791 146.224 78.5029 146.95 78.5029H239C239.725 78.5029 240.421 78.791 240.933 79.3037C241.446 79.8165 241.734 80.512 241.734 81.2371C241.734 81.9623 241.446 82.6577 240.933 83.1705C240.421 83.6832 239.725 83.9713 239 83.9713Z" fill="#E6E6E6"/>
<path d="M180.762 94.9078H146.95C146.224 94.9078 145.529 94.6197 145.016 94.107C144.503 93.5942 144.215 92.8988 144.215 92.1736C144.215 91.4485 144.503 90.753 145.016 90.2403C145.529 89.7275 146.224 89.4395 146.95 89.4395H180.762C181.487 89.4395 182.183 89.7275 182.696 90.2403C183.208 90.753 183.496 91.4485 183.496 92.1736C183.496 92.8988 183.208 93.5942 182.696 94.107C182.183 94.6197 181.487 94.9078 180.762 94.9078Z" fill="#E6E6E6"/>
<path d="M173.332 194.249H151.228C149.899 194.249 148.624 193.721 147.683 192.781C146.743 191.841 146.215 190.566 146.215 189.236C146.215 187.907 146.743 186.632 147.683 185.692C148.624 184.752 149.899 184.224 151.228 184.224H173.332C174.661 184.224 175.936 184.752 176.876 185.692C177.816 186.632 178.344 187.907 178.344 189.236C178.344 190.566 177.816 191.841 176.876 192.781C175.936 193.721 174.661 194.249 173.332 194.249Z" fill="#095FAF"/>
<path d="M239 205.186H146.95C146.224 205.186 145.529 204.898 145.016 204.385C144.503 203.873 144.215 203.177 144.215 202.452C144.215 201.727 144.503 201.031 145.016 200.519C145.529 200.006 146.224 199.718 146.95 199.718H239C239.725 199.718 240.421 200.006 240.933 200.519C241.446 201.031 241.734 201.727 241.734 202.452C241.734 203.177 241.446 203.873 240.933 204.385C240.421 204.898 239.725 205.186 239 205.186Z" fill="#E6E6E6"/>
<path d="M180.762 216.123H146.95C146.224 216.123 145.529 215.835 145.016 215.322C144.503 214.809 144.215 214.114 144.215 213.388C144.215 212.663 144.503 211.968 145.016 211.455C145.529 210.942 146.224 210.654 146.95 210.654H180.762C181.487 210.654 182.183 210.942 182.696 211.455C183.208 211.968 183.496 212.663 183.496 213.388C183.496 214.114 183.208 214.809 182.696 215.322C182.183 215.835 181.487 216.123 180.762 216.123Z" fill="#E6E6E6"/>
<path d="M171.332 250.3H149.228C147.899 250.3 146.624 249.772 145.683 248.832C144.743 247.892 144.215 246.617 144.215 245.287C144.215 243.958 144.743 242.683 145.683 241.743C146.624 240.803 147.899 240.274 149.228 240.274H171.332C172.661 240.274 173.936 240.803 174.876 241.743C175.816 242.683 176.344 243.958 176.344 245.287C176.344 246.617 175.816 247.892 174.876 248.832C173.936 249.772 172.661 250.3 171.332 250.3Z" fill="#095FAF"/>
<path d="M239 261.237H146.95C146.224 261.237 145.529 260.949 145.016 260.436C144.503 259.923 144.215 259.228 144.215 258.503C144.215 257.778 144.503 257.082 145.016 256.569C145.529 256.057 146.224 255.769 146.95 255.769H239C239.725 255.769 240.421 256.057 240.933 256.569C241.446 257.082 241.734 257.778 241.734 258.503C241.734 259.228 241.446 259.923 240.933 260.436C240.421 260.949 239.725 261.237 239 261.237Z" fill="#E6E6E6"/>
<path d="M180.762 272.173H146.95C146.224 272.173 145.529 271.885 145.016 271.373C144.503 270.86 144.215 270.164 144.215 269.439C144.215 268.714 144.503 268.019 145.016 267.506C145.529 266.993 146.224 266.705 146.95 266.705H180.762C181.487 266.705 182.183 266.993 182.696 267.506C183.208 268.019 183.496 268.714 183.496 269.439C183.496 270.164 183.208 270.86 182.696 271.373C182.183 271.885 181.487 272.173 180.762 272.173Z" fill="#E6E6E6"/>
<path d="M222.273 151.197H75.727C74.8715 151.196 74.0512 150.899 73.4463 150.37C72.8413 149.841 72.501 149.124 72.5 148.376V113.519C72.501 112.771 72.8413 112.054 73.4462 111.525C74.0512 110.996 74.8715 110.698 75.727 110.697H222.273C223.129 110.698 223.949 110.996 224.554 111.525C225.159 112.054 225.499 112.771 225.5 113.519V148.376C225.499 149.124 225.159 149.841 224.554 150.37C223.949 150.899 223.129 151.196 222.273 151.197Z" fill="#095FAF"/>
<path d="M108.692 121.197H84.3084C82.7598 121.197 81.5 120.188 81.5 118.947C81.5 117.707 82.7598 116.697 84.3084 116.697H108.692C110.24 116.697 111.5 117.707 111.5 118.947C111.5 120.188 110.24 121.197 108.692 121.197Z" fill="white"/>
<path d="M177.547 131.991H84.5295C83.935 131.991 83.3649 131.754 82.9446 131.334C82.5242 130.914 82.2881 130.344 82.2881 129.749C82.2881 129.155 82.5242 128.585 82.9446 128.164C83.3649 127.744 83.935 127.508 84.5295 127.508H177.547C178.141 127.508 178.711 127.744 179.132 128.164C179.552 128.585 179.788 129.155 179.788 129.749C179.788 130.344 179.552 130.914 179.132 131.334C178.711 131.754 178.141 131.991 177.547 131.991Z" fill="#E6E6E6"/>
<path d="M125.392 142.714H84.4462C83.9086 142.714 83.393 142.501 83.0129 142.121C82.6327 141.74 82.4192 141.225 82.4192 140.687C82.4192 140.15 82.6327 139.634 83.0129 139.254C83.393 138.874 83.9086 138.66 84.4462 138.66H125.392C125.93 138.66 126.445 138.874 126.826 139.254C127.206 139.634 127.419 140.15 127.419 140.687C127.419 141.225 127.206 141.74 126.826 142.121C126.445 142.501 125.93 142.714 125.392 142.714Z" fill="#E6E6E6"/>
</svg>
