<svg width="17" height="18" viewBox="0 0 17 18" fill="none" xmlns="http://www.w3.org/2000/svg">
<path d="M8.5 1.9165C7.7549 1.9165 7.03963 2.04433 6.375 2.27926M6.375 2.27926V8.2915M6.375 2.27926C3.89895 3.15441 2.125 5.51579 2.125 8.2915C2.125 7.19771 4.60417 6.29692 7.79167 6.17947M10.625 9.71787V15.7301M10.625 15.7301C13.101 14.8549 14.875 12.4935 14.875 9.71787C14.875 10.8518 12.2102 11.7783 8.85417 11.8396M10.625 15.7301C10.0664 15.9275 9.47198 16.0493 8.85417 16.0832" stroke="#095FAF" stroke-width="1.0625" stroke-linecap="round" stroke-linejoin="round"/>
<path d="M13.2476 1.9165C14.0256 1.9165 14.4147 1.9165 14.7163 2.04923C15.0363 2.18999 15.2934 2.4326 15.4426 2.73446C15.5833 3.0191 15.5833 3.38614 15.5833 4.12021V4.74984C15.5833 6.08548 15.5833 6.75331 15.1435 7.16824C14.7037 7.58317 13.9959 7.58317 12.5803 7.58317H10.9801C10.3627 7.58317 10.0539 7.58317 9.94781 7.39612C9.84171 7.20907 10.013 6.96669 10.3555 6.48192L10.4077 6.40807C10.658 6.05378 10.7832 5.87664 10.8476 5.67588C10.912 5.47511 10.912 5.26222 10.912 4.83642V4.12021C10.912 3.38614 10.912 3.0191 11.0527 2.73446C11.2019 2.4326 11.459 2.18999 11.7789 2.04923C12.0806 1.9165 12.4696 1.9165 13.2476 1.9165Z" stroke="#095FAF" stroke-width="1.0625"/>
<path d="M4.74766 16.0832C5.52563 16.0832 5.91464 16.0832 6.21632 15.9504C6.53628 15.8097 6.7934 15.5671 6.94258 15.2652C7.08325 14.9806 7.08325 14.6135 7.08325 13.8795V13.2498C7.08325 11.9142 7.08325 11.2464 6.64345 10.8314C6.20371 10.4165 5.49595 10.4165 4.08034 10.4165H2.48015C1.86262 10.4165 1.55393 10.4165 1.44782 10.6036C1.34171 10.7906 1.51299 11.033 1.85547 11.5177L1.90767 11.5916C2.158 11.9459 2.28316 12.123 2.34762 12.3238C2.41201 12.5246 2.41201 12.7374 2.41201 13.1633V13.8795C2.41201 14.6135 2.41201 14.9806 2.55268 15.2652C2.70186 15.5671 2.95898 15.8097 3.27894 15.9504C3.58061 16.0832 3.96963 16.0832 4.74766 16.0832Z" stroke="#095FAF" stroke-width="1.0625"/>
</svg>
