<svg width="54" height="54" viewBox="0 0 54 54" fill="none" xmlns="http://www.w3.org/2000/svg">
<circle cx="26.8838" cy="26.8838" r="26.8838" fill="#095FAF" fill-opacity="0.1"/>
<path d="M14.2613 12.3949C13.6867 12.4455 13.2476 12.9251 13.2476 13.5013V38.9305C13.2476 39.4712 13.6326 39.9298 14.1644 40.025L25.7707 42.0923C26.0951 42.1505 26.4273 42.0627 26.6791 41.8502C26.9319 41.6386 27.0768 41.3278 27.0768 40.999V12.4751C27.0768 12.1615 26.9478 11.8673 26.7171 11.6558C26.4853 11.444 26.1804 11.3405 25.8676 11.3682L14.2613 12.3949ZM24.0342 28.2565C23.5565 28.2565 23.1689 27.5751 23.1689 26.7365C23.1689 25.8965 23.5565 25.2172 24.0342 25.2172C24.5126 25.2172 24.9002 25.8965 24.9002 26.7365C24.9002 27.5751 24.5125 28.2565 24.0342 28.2565Z" fill="#095FAF"/>
<path d="M43.9296 26.142L34.858 19.4062V22.9006H27.8101V29.3414H34.858V32.8347L43.9296 26.142Z" fill="#095FAF"/>
<path d="M23.1689 26.7366C23.1689 27.5752 23.5565 28.2566 24.0343 28.2566C24.5126 28.2566 24.9002 27.5752 24.9002 26.7366C24.9002 25.8966 24.5126 25.2173 24.0343 25.2173C23.5565 25.2173 23.1689 25.8966 23.1689 26.7366Z" fill="white"/>
<path d="M34.0683 21.9098V13.2161C34.0683 12.988 33.9765 12.7647 33.8148 12.6035C33.6547 12.4425 33.4314 12.3496 33.2039 12.3496H27.8101V14.0812H32.3376V21.9098H34.0683Z" fill="#095FAF"/>
<path d="M27.8101 39.3928V41.1244H33.2039C33.4314 41.1244 33.6547 41.0324 33.8148 40.8703C33.9765 40.7096 34.0683 40.486 34.0683 40.2582V30.2788H32.3376V39.3928H27.8101V39.3928Z" fill="#095FAF"/>
</svg>
