<svg width="36" height="37" viewBox="0 0 36 37" fill="none" xmlns="http://www.w3.org/2000/svg">
<rect y="0.5" width="36" height="36" rx="18" fill="#095FAF"/>
<g clip-path="url(#clip0_1129_5575)">
<path d="M19.9292 22.0221H15.7029M14.2942 12.8651V15.6826M12.181 11.4564V17.0914M10.0679 13.5695V14.9783M16.4073 13.5695V14.9783M11.4766 19.2046C11.478 22.1291 11.5104 23.6245 12.405 24.5663C13.3334 25.544 14.8281 25.544 17.8161 25.544H18.133C20.8146 25.544 22.1551 25.544 23.0447 24.7445C23.171 24.6309 23.2882 24.5074 23.3962 24.374C24.1555 23.4379 24.1555 22.027 24.1555 19.2046C24.1555 16.3821 24.1555 14.9698 23.3962 14.0344C23.2887 13.9018 23.171 13.7779 23.044 13.6639C22.2678 12.9637 21.145 12.8764 19.084 12.8651H18.5204" stroke="white" stroke-width="1.125" stroke-linecap="round" stroke-linejoin="round"/>
</g>
<defs>
<clipPath id="clip0_1129_5575">
<rect width="16.9052" height="16.9052" fill="white" transform="translate(8.65918 10.0476)"/>
</clipPath>
</defs>
</svg>
