<svg width="240" height="214" viewBox="0 0 240 214" fill="none" xmlns="http://www.w3.org/2000/svg">
<g clip-path="url(#clip0_73_4618)">
<path d="M96.2256 188.855C148.862 188.855 237.22 137.209 237.22 80.6625C237.22 24.1161 152.301 19.9695 99.6645 19.9695C47.0283 19.9695 0.919312 9.94211 0.919312 86.4685C0.919312 143.015 43.5894 188.855 96.2256 188.855Z" fill="#095FAF" fill-opacity="0.05"/>
<path d="M193.346 47.1531C193.342 47.1531 193.338 47.1543 193.333 47.1545V22.1906C193.333 19.4879 192.26 16.8959 190.349 14.9848C188.437 13.0737 185.845 12 183.143 12H104.987C102.284 12 99.6922 13.0737 97.781 14.9848C95.8699 16.8959 94.7963 19.4879 94.7963 22.1906V34.9884C94.5805 34.993 94.3751 35.0819 94.2241 35.2361C94.073 35.3902 93.9884 35.5974 93.9882 35.8132V42.1521C93.9883 42.3679 94.073 42.5751 94.2241 42.7292C94.3751 42.8833 94.5805 42.9722 94.7963 42.9767V49.6173H94.7548C94.6463 49.6173 94.5388 49.6387 94.4385 49.6802C94.3382 49.7218 94.2471 49.7827 94.1703 49.8594C94.0935 49.9362 94.0327 50.0273 93.9911 50.1276C93.9496 50.2279 93.9282 50.3354 93.9282 50.4439V62.7017C93.9282 62.8103 93.9496 62.9178 93.9911 63.0181C94.0327 63.1184 94.0935 63.2095 94.1703 63.2863C94.2471 63.363 94.3382 63.4239 94.4385 63.4654C94.5388 63.507 94.6463 63.5284 94.7548 63.5284H94.7963V68.3968H94.7834C94.6748 68.3968 94.5673 68.4181 94.467 68.4597C94.3668 68.5012 94.2756 68.5621 94.1989 68.6389C94.1221 68.7156 94.0612 68.8067 94.0197 68.907C93.9781 69.0073 93.9568 69.1148 93.9568 69.2234V81.6011C93.9568 81.7096 93.9781 81.8171 94.0197 81.9174C94.0612 82.0177 94.1221 82.1088 94.1989 82.1856C94.2756 82.2624 94.3668 82.3232 94.467 82.3648C94.5673 82.4063 94.6748 82.4277 94.7834 82.4277H94.7963V202.073C94.7963 204.776 95.8699 207.368 97.781 209.279C99.6922 211.19 102.284 212.264 104.987 212.264H183.143C185.845 212.264 188.437 211.19 190.349 209.279C192.26 207.368 193.333 204.776 193.333 202.073V71.4278C193.338 71.4278 193.342 71.429 193.346 71.429C193.54 71.429 193.731 71.391 193.909 71.317C194.088 71.243 194.25 71.1346 194.387 70.9979C194.524 70.8613 194.632 70.699 194.706 70.5204C194.78 70.3419 194.818 70.1505 194.818 69.9572V48.6251C194.818 48.2347 194.663 47.8603 194.387 47.5842C194.111 47.3082 193.737 47.1531 193.346 47.1531Z" fill="#3F3D56"/>
<path d="M187.249 25.0432V199.218C187.248 201.293 186.423 203.283 184.956 204.75C183.488 206.217 181.498 207.041 179.423 207.041H108.708C106.633 207.041 104.642 206.217 103.175 204.75C101.707 203.283 100.882 201.293 100.881 199.218V25.0432C100.881 22.9675 101.706 20.9768 103.174 19.5091C104.641 18.0414 106.632 17.2168 108.708 17.2168H119.29V18.5902C119.29 20.2992 119.97 21.9379 121.178 23.1463C122.386 24.3547 124.025 25.0339 125.734 25.0347H161.711C163.418 25.0309 165.053 24.3502 166.259 23.1421C167.464 21.9339 168.141 20.2969 168.141 18.5902V17.2311H179.423C181.496 17.2311 183.484 18.0537 184.952 19.5183C186.419 20.983 187.245 22.97 187.249 25.0432Z" fill="white"/>
<path d="M71.2133 103.984C70.7684 103.812 70.2911 103.739 69.8151 103.771C69.3391 103.803 68.8759 103.939 68.4581 104.17C68.0404 104.4 67.6783 104.72 67.3973 105.105C67.1163 105.491 66.9233 105.933 66.8318 106.402L40.0204 120.98L44.7345 126.286L69.6337 110.306C70.4305 110.408 71.2369 110.214 71.9001 109.76C72.5632 109.307 73.037 108.626 73.2318 107.847C73.4265 107.067 73.3285 106.244 72.9565 105.532C72.5845 104.82 71.9643 104.269 71.2133 103.984Z" fill="#E4897B"/>
<path d="M64.3755 208.877L67.7164 206.716L60.9712 192.801L56.0402 195.99L64.3755 208.877Z" fill="#E4897B"/>
<path d="M76.166 205.649L65.6659 212.441L63.0419 208.384L69.6368 204.119C70.6725 203.449 71.9319 203.218 73.138 203.476C74.344 203.735 75.398 204.462 76.0679 205.498L76.166 205.649Z" fill="#2F2E41"/>
<path d="M26.8896 209.379H30.8685L32.7621 194.032H26.8896V209.379Z" fill="#E4897B"/>
<path d="M38.5418 213.074H26.0367V208.243H33.8909C34.5017 208.243 35.1065 208.363 35.6707 208.597C36.235 208.83 36.7477 209.173 37.1796 209.605C37.6115 210.037 37.9541 210.549 38.1878 211.114C38.4215 211.678 38.5418 212.283 38.5418 212.894V213.074Z" fill="#2F2E41"/>
<path d="M118.177 30.0737H109.975C109.773 30.0737 109.58 29.9937 109.437 29.8512C109.295 29.7088 109.215 29.5156 109.215 29.3142C109.215 29.1128 109.295 28.9196 109.437 28.7771C109.58 28.6347 109.773 28.5547 109.975 28.5547H118.177C118.378 28.5547 118.572 28.6347 118.714 28.7771C118.857 28.9196 118.937 29.1128 118.937 29.3142C118.937 29.5156 118.857 29.7088 118.714 29.8512C118.572 29.9937 118.378 30.0737 118.177 30.0737Z" fill="#3F3D56"/>
<path d="M118.177 32.1997H109.975C109.773 32.1997 109.58 32.1196 109.437 31.9772C109.295 31.8348 109.215 31.6416 109.215 31.4402C109.215 31.2387 109.295 31.0455 109.437 30.9031C109.58 30.7607 109.773 30.6807 109.975 30.6807H118.177C118.378 30.6807 118.572 30.7607 118.714 30.9031C118.857 31.0455 118.937 31.2387 118.937 31.4402C118.937 31.6416 118.857 31.8348 118.714 31.9772C118.572 32.1196 118.378 32.1997 118.177 32.1997Z" fill="#3F3D56"/>
<path d="M118.177 34.3266H109.975C109.773 34.3266 109.58 34.2466 109.437 34.1042C109.295 33.9617 109.215 33.7685 109.215 33.5671C109.215 33.3657 109.295 33.1725 109.437 33.0301C109.58 32.8876 109.773 32.8076 109.975 32.8076H118.177C118.378 32.8076 118.572 32.8876 118.714 33.0301C118.857 33.1725 118.937 33.3657 118.937 33.5671C118.937 33.7685 118.857 33.9617 118.714 34.1042C118.572 34.2466 118.378 34.3266 118.177 34.3266Z" fill="#3F3D56"/>
<path d="M181.759 32.2153H181.483L181.376 32.1272C181.726 31.7109 181.917 31.185 181.917 30.6416C181.915 30.1946 181.78 29.7583 181.529 29.388C181.279 29.0176 180.925 28.7298 180.511 28.561C180.097 28.3921 179.642 28.3498 179.204 28.4394C178.766 28.529 178.365 28.7464 178.05 29.0642C177.736 29.382 177.523 29.7859 177.438 30.2248C177.353 30.6637 177.4 31.1179 177.573 31.53C177.747 31.9421 178.038 32.2935 178.411 32.5399C178.784 32.7862 179.222 32.9164 179.669 32.914C180.211 32.9102 180.735 32.7191 181.152 32.3733L181.255 32.4614V32.7409L182.999 34.4877L183.521 33.9652L181.759 32.2153ZM179.669 32.2153C179.358 32.2165 179.053 32.1254 178.794 31.9535C178.534 31.7816 178.332 31.5366 178.211 31.2495C178.091 30.9624 178.059 30.6461 178.118 30.3406C178.178 30.0351 178.327 29.7541 178.546 29.5332C178.765 29.3123 179.045 29.1613 179.35 29.0994C179.655 29.0375 179.972 29.0674 180.26 29.1854C180.548 29.3034 180.794 29.5042 180.968 29.7623C181.142 30.0204 181.235 30.3243 181.237 30.6355L181.237 30.6416C181.238 30.8471 181.199 31.0508 181.121 31.241C181.043 31.4313 180.929 31.6045 180.785 31.7506C180.64 31.8967 180.469 32.013 180.279 32.0927C180.09 32.1724 179.887 32.2141 179.681 32.2153C179.677 32.2153 179.673 32.2153 179.669 32.2153Z" fill="#3F3D56"/>
<path d="M134.888 58.0224H120.152C119.266 58.0224 118.416 57.6703 117.789 57.0436C117.162 56.4169 116.81 55.5669 116.81 54.6806C116.81 53.7943 117.162 52.9444 117.789 52.3177C118.416 51.6909 119.266 51.3389 120.152 51.3389H134.888C135.774 51.3389 136.624 51.6909 137.251 52.3177C137.877 52.9444 138.23 53.7943 138.23 54.6806C138.23 55.5669 137.877 56.4169 137.251 57.0436C136.624 57.6703 135.774 58.0224 134.888 58.0224Z" fill="#095FAF"/>
<path d="M180 65.3145H118.633C118.15 65.3145 117.686 65.1225 117.344 64.7806C117.002 64.4388 116.81 63.9752 116.81 63.4917C116.81 63.0083 117.002 62.5447 117.344 62.2028C117.686 61.861 118.15 61.6689 118.633 61.6689H180C180.483 61.6689 180.947 61.861 181.289 62.2028C181.631 62.5447 181.823 63.0083 181.823 63.4917C181.823 63.9752 181.631 64.4388 181.289 64.7806C180.947 65.1225 180.483 65.3145 180 65.3145Z" fill="#E6E6E6"/>
<path d="M141.175 72.6055H118.633C118.15 72.6055 117.686 72.4135 117.344 72.0717C117.002 71.7298 116.81 71.2662 116.81 70.7827C116.81 70.2993 117.002 69.8357 117.344 69.4938C117.686 69.152 118.15 68.96 118.633 68.96H141.175C141.658 68.96 142.122 69.152 142.464 69.4938C142.806 69.8357 142.998 70.2993 142.998 70.7827C142.998 71.2662 142.806 71.7298 142.464 72.0717C142.122 72.4135 141.658 72.6055 141.175 72.6055Z" fill="#E6E6E6"/>
<path d="M134.888 138.833H120.152C119.266 138.833 118.416 138.481 117.789 137.854C117.162 137.227 116.81 136.377 116.81 135.491C116.81 134.605 117.162 133.755 117.789 133.128C118.416 132.501 119.266 132.149 120.152 132.149H134.888C135.774 132.149 136.624 132.501 137.251 133.128C137.877 133.755 138.23 134.605 138.23 135.491C138.23 136.377 137.877 137.227 137.251 137.854C136.624 138.481 135.774 138.833 134.888 138.833Z" fill="#095FAF"/>
<path d="M180 146.124H118.633C118.15 146.124 117.686 145.932 117.344 145.59C117.002 145.248 116.81 144.785 116.81 144.301C116.81 143.818 117.002 143.354 117.344 143.012C117.686 142.671 118.15 142.479 118.633 142.479H180C180.483 142.479 180.947 142.671 181.289 143.012C181.631 143.354 181.823 143.818 181.823 144.301C181.823 144.785 181.631 145.248 181.289 145.59C180.947 145.932 180.483 146.124 180 146.124Z" fill="#E6E6E6"/>
<path d="M141.175 153.415H118.633C118.15 153.415 117.686 153.223 117.344 152.881C117.002 152.539 116.81 152.076 116.81 151.592C116.81 151.109 117.002 150.645 117.344 150.303C117.686 149.962 118.15 149.77 118.633 149.77H141.175C141.658 149.77 142.122 149.962 142.464 150.303C142.806 150.645 142.998 151.109 142.998 151.592C142.998 152.076 142.806 152.539 142.464 152.881C142.122 153.223 141.658 153.415 141.175 153.415Z" fill="#E6E6E6"/>
<path d="M134.888 176.2H120.152C119.266 176.2 118.416 175.848 117.789 175.221C117.162 174.595 116.81 173.745 116.81 172.858C116.81 171.972 117.162 171.122 117.789 170.495C118.416 169.869 119.266 169.517 120.152 169.517H134.888C135.774 169.517 136.624 169.869 137.251 170.495C137.877 171.122 138.23 171.972 138.23 172.858C138.23 173.745 137.877 174.595 137.251 175.221C136.624 175.848 135.774 176.2 134.888 176.2Z" fill="#095FAF"/>
<path d="M180 183.491H118.633C118.15 183.491 117.686 183.299 117.344 182.957C117.002 182.616 116.81 182.152 116.81 181.668C116.81 181.185 117.002 180.721 117.344 180.38C117.686 180.038 118.15 179.846 118.633 179.846H180C180.483 179.846 180.947 180.038 181.289 180.38C181.631 180.721 181.823 181.185 181.823 181.668C181.823 182.152 181.631 182.616 181.289 182.957C180.947 183.299 180.483 183.491 180 183.491Z" fill="#E6E6E6"/>
<path d="M141.175 190.782H118.633C118.15 190.782 117.686 190.59 117.344 190.248C117.002 189.907 116.81 189.443 116.81 188.96C116.81 188.476 117.002 188.012 117.344 187.671C117.686 187.329 118.15 187.137 118.633 187.137H141.175C141.658 187.137 142.122 187.329 142.464 187.671C142.806 188.012 142.998 188.476 142.998 188.96C142.998 189.443 142.806 189.907 142.464 190.248C142.122 190.59 141.658 190.782 141.175 190.782Z" fill="#E6E6E6"/>
<path d="M168.845 114.491H70.965C70.3935 114.49 69.8457 114.263 69.4416 113.859C69.0375 113.455 68.8102 112.907 68.8096 112.335V85.7101C68.8102 85.1386 69.0375 84.5908 69.4416 84.1867C69.8456 83.7826 70.3935 83.5553 70.965 83.5547H168.845C169.416 83.5553 169.964 83.7826 170.368 84.1867C170.772 84.5908 170.999 85.1386 171 85.7101V112.335C170.999 112.907 170.772 113.455 170.368 113.859C169.964 114.263 169.416 114.49 168.845 114.491Z" fill="#095FAF"/>
<path d="M29.2349 157.796C30.3559 165.661 24.4197 200.507 25.0789 200.504L33.6035 200.458C33.9073 199.875 37.8202 181.073 39.0475 178.056C40.7609 173.87 42.4896 169.632 43.164 165.16C43.7989 160.962 43.486 156.684 43.0728 152.458C43.092 152.333 43.0811 152.204 43.0409 152.084C43.0006 151.963 42.9323 151.854 42.8415 151.765C42.7507 151.676 42.64 151.609 42.5186 151.572C42.3972 151.534 42.2685 151.525 42.1432 151.547L30.7052 150.958C28.3478 150.836 27.7888 150.32 28.1473 152.635C28.3964 154.363 28.9858 156.046 29.2349 157.796Z" fill="#2F2E41"/>
<path d="M31.4829 138.673C29.1589 142.014 26.7224 145.86 27.494 149.861C28.0804 152.899 30.3953 155.254 32.5796 157.456C41.3108 166.224 58.527 204.91 58.527 204.91C66.8353 199.593 58.329 205.061 66.7599 199.441C66.0125 199.384 49.0333 138.348 47.6267 138.266C41.9366 137.889 37.0272 137.333 31.4829 138.673Z" fill="#2F2E41"/>
<path d="M40.6754 106.865C39.4949 105.813 31.1992 102.566 31.1992 102.566C31.0467 102.546 30.8919 102.55 30.7409 102.58C30.2688 102.699 30.0534 103.286 30.1542 103.76C30.2551 104.234 29.4278 112.031 29.2146 115.576C28.8411 121.764 32.4849 135.78 32.4528 136.208C32.3279 137.737 31.6587 139.169 30.5667 140.246C30.8505 140.598 48.8751 141.305 50.1011 141.722C50.3486 141.408 48.7055 119.176 48.6299 117.92C48.5038 116.014 42.2337 108.309 40.6754 106.865Z" fill="#095FAF"/>
<path d="M27.8197 155.105C28.2468 154.892 28.6222 154.588 28.9193 154.215C29.2164 153.842 29.428 153.408 29.5393 152.944C29.6506 152.48 29.6588 151.997 29.5633 151.53C29.4678 151.062 29.271 150.621 28.9868 150.238L36.5917 108.15L29.495 108.057L24.2138 149.676C23.6017 150.197 23.2017 150.923 23.0897 151.719C22.9776 152.514 23.1612 153.323 23.6057 153.992C24.0501 154.661 24.7246 155.144 25.5013 155.349C26.278 155.554 27.1029 155.467 27.8197 155.105Z" fill="#E4897B"/>
<path d="M27.7589 111.273C27.4629 111.294 27.1681 111.217 26.9204 111.054C26.4981 110.692 29.9432 105.16 30.6237 105.078C32.8384 104.823 35.1168 104.738 37.2647 105.336C39.4125 105.935 41.4328 107.296 42.3928 109.31C42.7938 110.149 39.8865 114.368 38.5649 113.749C36.9822 113.007 29.8429 111.324 27.7589 111.273Z" fill="#095FAF"/>
<path d="M35.5755 102.112C39.9779 102.112 43.5468 98.5426 43.5468 94.1402C43.5468 89.7378 39.9779 86.1689 35.5755 86.1689C31.1731 86.1689 27.6042 89.7378 27.6042 94.1402C27.6042 98.5426 31.1731 102.112 35.5755 102.112Z" fill="#E4897B"/>
<path d="M27.7456 107.32C28.8533 107.436 29.9724 107.272 31.0005 106.844C32.0286 106.416 32.9329 105.736 33.6306 104.868C34.3283 104 34.7971 102.971 34.9943 101.875C35.1914 100.778 35.1105 99.6504 34.759 98.5935C34.4417 97.6398 33.9115 96.7656 33.621 95.8034C33.3305 94.8412 33.3226 93.7035 33.9669 92.9321C35.2276 91.4229 37.6574 92.3722 39.6009 92.0722C41.6718 91.7524 43.2605 89.7657 43.4262 87.6768C43.592 85.5879 42.5032 83.5208 40.8824 82.1927C39.2616 80.8646 37.1713 80.2107 35.0859 80.0058C32.4078 79.7426 29.707 80.1735 27.2436 81.2567C24.7802 82.34 22.6372 84.0393 21.021 86.1909C19.4047 88.3425 18.3697 90.874 18.0154 93.5416C17.6612 96.2093 17.9997 98.9232 18.9985 101.422C19.8697 103.602 21.2928 105.632 23.3142 106.826C25.3355 108.02 28.0052 108.249 30.0198 107.044" fill="#2F2E41"/>
<path d="M93.0394 92.6898H76.7839C75.7515 92.6898 74.9116 91.4935 74.9116 90.0231C74.9116 88.5527 75.7515 87.3564 76.7839 87.3564H93.0394C94.0717 87.3564 94.9116 88.5527 94.9116 90.0231C94.9116 91.4935 94.0717 92.6898 93.0394 92.6898Z" fill="white"/>
<path d="M139.031 101.327H77.0196C76.6233 101.327 76.2433 101.17 75.963 100.89C75.6828 100.609 75.5254 100.229 75.5254 99.8331C75.5254 99.4368 75.6828 99.0567 75.963 98.7765C76.2433 98.4963 76.6233 98.3389 77.0196 98.3389H139.031C139.427 98.3389 139.808 98.4963 140.088 98.7765C140.368 99.0567 140.525 99.4368 140.525 99.8331C140.525 100.229 140.368 100.609 140.088 100.89C139.808 101.17 139.427 101.327 139.031 101.327Z" fill="#E6E6E6"/>
<path d="M104.261 109.476H76.9641C76.6057 109.476 76.262 109.334 76.0086 109.08C75.7552 108.827 75.6128 108.483 75.6128 108.125C75.6128 107.766 75.7552 107.423 76.0086 107.169C76.262 106.916 76.6057 106.773 76.9641 106.773H104.261C104.62 106.773 104.964 106.916 105.217 107.169C105.47 107.423 105.613 107.766 105.613 108.125C105.613 108.483 105.47 108.827 105.217 109.08C104.964 109.334 104.62 109.476 104.261 109.476Z" fill="#E6E6E6"/>
</g>
<defs>
<clipPath id="clip0_73_4618">
<rect width="240" height="213.263" fill="white"/>
</clipPath>
</defs>
</svg>
