<svg width="17" height="17" viewBox="0 0 17 17" fill="none" xmlns="http://www.w3.org/2000/svg">
<path d="M1.76147 8.45502C1.76147 5.29965 1.76147 3.72197 2.74172 2.74172C3.72197 1.76147 5.29965 1.76147 8.45502 1.76147C11.6104 1.76147 13.1881 1.76147 14.1683 2.74172C15.1486 3.72197 15.1486 5.29965 15.1486 8.45502C15.1486 11.6104 15.1486 13.1881 14.1683 14.1683C13.1881 15.1486 11.6104 15.1486 8.45502 15.1486C5.29965 15.1486 3.72197 15.1486 2.74172 14.1683C1.76147 13.1881 1.76147 11.6104 1.76147 8.45502Z" stroke="#EC1C24" stroke-width="1.6"/>
<path d="M11.2734 5.63672L5.63672 11.2734M5.63672 5.63672L11.2734 11.2734" stroke="#EC1C24" stroke-width="1.6" stroke-linecap="round" stroke-linejoin="round"/>
</svg>
