<svg width="66" height="66" viewBox="0 0 66 66" fill="none" xmlns="http://www.w3.org/2000/svg">
<path d="M33 11C26.9249 11 22 15.9249 22 22C22 28.0751 26.9249 33 33 33C39.0751 33 44 28.0751 44 22C44 15.9249 39.0751 11 33 11ZM16.5 22C16.5 12.8873 23.8873 5.5 33 5.5C42.1127 5.5 49.5 12.8873 49.5 22C49.5 31.1127 42.1127 38.5 33 38.5C23.8873 38.5 16.5 31.1127 16.5 22ZM22 49.5C17.4437 49.5 13.75 53.1936 13.75 57.75C13.75 59.2688 12.5188 60.5 11 60.5C9.48122 60.5 8.25 59.2688 8.25 57.75C8.25 50.1561 14.4061 44 22 44H44C51.5939 44 57.75 50.1561 57.75 57.75C57.75 59.2688 56.5188 60.5 55 60.5C53.4812 60.5 52.25 59.2688 52.25 57.75C52.25 53.1936 48.5563 49.5 44 49.5H22Z" fill="#2E2E2E" fill-opacity="0.5"/>
</svg>
