<svg width="19" height="22" viewBox="0 0 19 22" fill="none" xmlns="http://www.w3.org/2000/svg">
<path d="M1.01416 8.368C1.01416 4.895 1.01416 3.158 2.03916 2.079C3.06416 1 4.71416 1 8.01416 1H11.0142C14.3142 1 15.9642 1 16.9892 2.08C18.0142 3.157 18.0142 4.894 18.0142 8.367V13.631C18.0142 17.104 18.0142 18.841 16.9892 19.92C15.9642 20.999 14.3142 21 11.0142 21H8.01416C4.71416 21 3.06416 21 2.03916 19.92C1.01416 18.843 1.01416 17.106 1.01416 13.633V8.368Z" stroke="black" stroke-width="1.5" stroke-linecap="round" stroke-linejoin="round"/>
<path d="M5.51416 1L5.59616 1.493C5.79616 2.69 5.89616 3.289 6.31616 3.645C6.73416 4 7.34116 4 8.55516 4H10.4722C11.6852 4 12.2922 4 12.7122 3.645C13.1322 3.289 13.2322 2.69 13.4312 1.493L13.5142 1M5.51416 15H9.51416M5.51416 10H13.5142" stroke="black" stroke-width="1.5" stroke-linecap="round" stroke-linejoin="round"/>
</svg>
