<svg width="44" height="45" viewBox="0 0 44 45" fill="none" xmlns="http://www.w3.org/2000/svg">
<rect y="0.5" width="44" height="44" rx="22" fill="#095FAF" fill-opacity="0.05"/>
<path d="M24.3582 26.8048H19.1927M17.4709 15.6129V19.0566M14.8882 13.8911V20.7784M12.3054 16.4738V18.1957M20.0536 16.4738V18.1957M14.0272 23.3611C14.029 26.9356 14.0686 28.7633 15.1619 29.9144C16.2966 31.1093 18.1235 31.1093 21.7754 31.1093H22.1628C25.4403 31.1093 27.0786 31.1093 28.166 30.1322C28.3204 29.9933 28.4636 29.8424 28.5956 29.6794C29.5236 28.5352 29.5236 26.8108 29.5236 23.3611C29.5236 19.9115 29.5236 18.1853 28.5956 17.042C28.4642 16.88 28.3203 16.7286 28.1651 16.5892C27.2164 15.7335 25.8441 15.6267 23.3251 15.6129H22.6363" stroke="#095FAF" stroke-width="1.375" stroke-linecap="round" stroke-linejoin="round"/>
</svg>
