<svg width="222" height="213" viewBox="0 0 222 213" fill="none" xmlns="http://www.w3.org/2000/svg">
<rect x="51.0243" y="0.602783" width="170" height="130" rx="22.1603" fill="#095FAF" fill-opacity="0.05"/>
<path d="M142.821 23.5823H92.3436C88.5521 23.5823 85.4785 26.6559 85.4785 30.4473V30.4473C85.4785 34.2388 88.5521 37.3124 92.3436 37.3124H142.821C146.613 37.3124 149.687 34.2388 149.687 30.4473C149.687 26.6559 146.613 23.5823 142.821 23.5823Z" fill="white"/>
<path d="M72.3289 54.9775H188.025C191.816 54.9775 194.89 58.0511 194.89 61.8426C194.89 65.6341 191.816 68.7077 188.025 68.7077H72.3289C68.5375 68.7077 65.4639 65.6341 65.4639 61.8426C65.4639 58.0511 68.5375 54.9775 72.3289 54.9775Z" fill="white"/>
<path d="M99.6431 85.5881H179.628C182.249 85.5881 184.374 88.6629 184.374 92.4559C184.374 96.2488 182.249 99.3236 179.628 99.3236H99.6431C97.022 99.3236 94.8971 96.2488 94.8971 92.4559C94.8971 88.6629 97.022 85.5881 99.6431 85.5881Z" fill="white"/>
<path d="M37.7183 207.975L41.9567 207.975L43.9735 191.625L37.7172 191.625L37.7183 207.975Z" fill="#E4897B"/>
<path d="M37.5689 212.397L50.6036 212.397V212.232C50.6035 209.43 48.3321 207.159 45.5302 207.158L43.1489 205.352L38.7066 207.159L37.5687 207.159L37.5689 212.397Z" fill="#2F2E41"/>
<path d="M3.74902 196.235L7.13933 198.778L18.5645 186.911L13.5601 183.156L3.74902 196.235Z" fill="#E4897B"/>
<path d="M0.975708 199.683L11.4025 207.505L11.5014 207.373C13.1828 205.131 12.729 201.951 10.4878 200.27L9.66707 197.396L5.02944 196.175L4.11925 195.492L0.975708 199.683Z" fill="#2F2E41"/>
<path d="M30.5 60.8701L37.5 61.4035L39 65.6701L30.5 64.0701V60.8701Z" fill="#E4897B"/>
<path d="M17.839 131.25C17.839 131.25 18.073 137.633 18.3681 142.751C18.4165 143.591 16.4498 144.503 16.5007 145.416C16.5345 146.022 16.9042 146.611 16.9385 147.243C16.9748 147.909 16.4644 148.5 16.5007 149.189C16.5362 149.863 17.1185 150.635 17.1536 151.325C17.5316 158.746 18.9018 167.629 17.5297 170.113C16.8536 171.337 8.23462 188.292 8.23462 188.292C8.23462 188.292 13.0368 195.496 14.4088 193.095C16.221 189.923 30.1874 175.086 30.1874 172.253C30.1874 169.423 33.4186 148.215 33.4186 148.215L35.6716 160.766L36.7047 163.253L36.3801 164.712L37.0477 166.683L37.0837 168.632L37.7337 172.253C37.7337 172.253 35.7786 200.463 36.8796 201.248C37.9841 202.037 43.3317 203.454 43.9628 202.037C44.5905 200.62 48.6763 172.596 48.6763 172.596C48.6763 172.596 49.3349 159.754 50.0484 147.817C50.0895 147.124 50.5767 146.287 50.6144 145.605C50.659 144.812 50.3503 143.783 50.3914 143.015C50.436 142.133 50.827 141.512 50.8648 140.669C51.1563 134.148 49.5196 126.207 48.9983 125.425C47.4238 123.065 46.0072 121.179 46.0072 121.179C46.0072 121.179 24.8013 114.211 19.1348 121.291L17.839 131.25Z" fill="#2F2E41"/>
<path d="M38.9889 65.6142L30.5825 63.9329L26.6595 69.2569C19.3394 76.4546 19.2291 82.807 20.5359 92.9894V107.28L19.5901 116.861C19.5901 116.861 16.2419 123.864 19.6952 125.494C23.1485 127.125 45.8313 126.986 47.997 126.335C50.1626 125.684 48.2855 124.885 47.7168 121.852C46.6485 116.154 47.363 118.902 47.4366 117.088C48.4906 91.0637 46.0355 80.3797 45.7862 77.5715L41.5109 69.8174L38.9889 65.6142Z" fill="#095FAF"/>
<path d="M83.2962 86.5971C82.4201 88.2572 80.3641 88.8926 78.704 88.0165C78.527 87.9231 78.3586 87.8143 78.2008 87.6912L60.0463 99.2184L60.0986 92.9424L77.7343 82.7081C78.9905 81.2997 81.1506 81.1762 82.559 82.4324C83.7375 83.4836 84.0423 85.2053 83.2962 86.5971Z" fill="#E4897B"/>
<path d="M32.3516 72.8825L30.2848 72.6635C28.375 72.4654 26.5012 73.2833 25.348 74.8184C24.9064 75.4006 24.5891 76.0674 24.416 76.7773L24.4148 76.783C23.8963 78.92 24.7095 81.1595 26.4783 82.466L33.6169 87.7291C38.6266 94.4983 48.0417 98.9893 59.0857 102.638L76.2522 91.9765L70.1804 84.6228L58.4058 90.9332L40.9036 77.3846L40.8935 77.3765L34.2321 73.0847L32.3516 72.8825Z" fill="#095FAF"/>
<path d="M36.1485 61.4861C41.5626 61.4861 45.9516 57.0971 45.9516 51.683C45.9516 46.2689 41.5626 41.8799 36.1485 41.8799C30.7343 41.8799 26.3453 46.2689 26.3453 51.683C26.3453 57.0971 30.7343 61.4861 36.1485 61.4861Z" fill="#E4897B"/>
<path d="M36.3749 61.4883C36.2959 61.4909 36.2167 61.4926 36.1376 61.4948C36.1037 61.5826 36.0672 61.6697 36.025 61.7552L36.3749 61.4883Z" fill="#2F2E41"/>
<path d="M39.0653 51.9551C39.0807 52.0517 39.1042 52.1468 39.1356 52.2394C39.1227 52.1423 39.0991 52.047 39.0653 51.9551Z" fill="#2F2E41"/>
<path d="M46.0767 42.2995C45.6732 43.5524 45.313 41.9631 43.9856 42.249C42.3889 42.5928 40.5307 42.4747 39.223 41.496C37.2746 40.0664 34.7497 39.6816 32.4639 40.4658C30.2263 41.2573 26.4778 41.8155 25.8948 44.1162C25.6921 44.9159 25.6116 45.7838 25.1204 46.4466C24.6909 47.0261 24.013 47.3565 23.4462 47.8025C21.5322 49.3084 22.9951 53.587 23.901 55.8477C24.8069 58.1084 26.8849 59.7553 29.1696 60.5989C31.3801 61.4151 33.7794 61.5591 36.1375 61.4949C36.5477 60.4312 36.3705 59.2025 36.0321 58.0998C35.6657 56.906 35.1232 55.7538 34.9701 54.5144C34.8171 53.2751 35.1532 51.8673 36.1924 51.1748C37.1475 50.5383 38.7019 50.926 39.0653 51.9551C38.8533 50.6686 40.1566 49.4235 41.5004 49.2046C42.9432 48.9695 44.386 49.4904 45.8247 49.7497C47.2634 50.009 46.7527 43.9521 46.0767 42.2995Z" fill="#2F2E41"/>
<path d="M107.961 64.5108C109.03 51.5974 99.4275 40.2625 86.514 39.1938C73.6006 38.125 62.2657 47.7271 61.197 60.6406C60.1282 73.554 69.7303 84.8889 82.6437 85.9576C95.5572 87.0264 106.892 77.4243 107.961 64.5108Z" fill="#D03710"/>
<path d="M90.7421 52.8002L84.5791 58.9632L78.4161 52.8002C77.4184 51.8026 75.8009 51.8026 74.8033 52.8002C73.8056 53.7979 73.8056 55.4154 74.8033 56.413L80.9663 62.576L74.8033 68.739C73.8066 69.7376 73.8081 71.3551 74.8067 72.3518C75.8039 73.3472 77.4188 73.3472 78.4161 72.3518L84.5791 66.1888L90.7421 72.3518C91.7406 73.3485 93.3581 73.347 94.3548 72.3484C95.3502 71.3512 95.3502 69.7363 94.3548 68.739L88.1919 62.576L94.3548 56.413C95.3525 55.4154 95.3525 53.7979 94.3548 52.8002C93.3572 51.8026 91.7397 51.8026 90.7421 52.8002Z" fill="white"/>
<path d="M73.0042 49.3829C73.5956 51.1644 72.6308 53.0879 70.8493 53.6793C70.6594 53.7424 70.4642 53.7885 70.2662 53.8172L66.0158 74.898L61.5232 70.5153L66.3474 50.704C66.2007 48.8224 67.6071 47.1783 69.4887 47.0317C71.063 46.909 72.5164 47.881 73.0042 49.3829Z" fill="#E4897B"/>
<path d="M27.8386 76.6501L26.2497 77.99C24.7846 79.2309 24.0776 81.1493 24.387 83.0442C24.5013 83.766 24.7628 84.4565 25.1553 85.0729L25.1586 85.0778C26.3417 86.9313 28.5207 87.8949 30.688 87.5231L39.428 86.0155C47.7809 87.0868 57.5398 83.4019 67.8184 77.9584L72.0096 58.19L62.4995 57.4805L58.9015 70.3458L37.0079 73.5958L36.9951 73.5974L29.2863 75.4331L27.8386 76.6501Z" fill="#095FAF"/>
</svg>
